<svg xmlns="http://www.w3.org/2000/svg" xmlns:xlink="http://www.w3.org/1999/xlink" width="256" zoomAndPan="magnify" viewBox="0 0 192 191.999996" height="256" preserveAspectRatio="xMidYMid meet" version="1.0"><defs><clipPath id="f5bd4e5588"><path d="M 19.199219 19.199219 L 172.949219 19.199219 L 172.949219 172.949219 L 19.199219 172.949219 Z M 19.199219 19.199219 " clip-rule="nonzero"/></clipPath></defs><g clip-path="url(#f5bd4e5588)"><path fill="#000000" d="M 32.796875 128.128906 L 135.292969 25.632812 C 139.589844 21.335938 145.246094 19.1875 150.902344 19.1875 C 156.558594 19.1875 162.21875 21.335938 166.515625 25.632812 L 166.519531 25.640625 C 170.816406 29.933594 172.960938 35.59375 172.960938 41.246094 C 172.960938 46.902344 170.8125 52.5625 166.515625 56.859375 L 64.019531 159.355469 C 63.480469 159.894531 62.832031 160.253906 62.144531 160.429688 L 24.589844 172.757812 C 22.421875 173.464844 20.09375 172.277344 19.390625 170.109375 C 19.109375 169.246094 19.128906 168.359375 19.390625 167.558594 C 23.507812 154.960938 27.660156 142.371094 31.792969 129.777344 C 32.003906 129.136719 32.351562 128.582031 32.800781 128.136719 Z M 125.367188 47.246094 L 144.902344 66.78125 L 151.519531 60.167969 L 131.984375 40.632812 Z M 119.523438 53.09375 L 39.324219 133.289062 L 29.78125 162.371094 L 58.859375 152.824219 L 139.058594 72.628906 Z M 141.136719 31.480469 L 137.828125 34.785156 L 157.363281 54.320312 L 160.671875 51.011719 C 163.351562 48.332031 164.695312 44.789062 164.695312 41.246094 C 164.695312 37.703125 163.351562 34.164062 160.671875 31.480469 C 157.988281 28.796875 154.445312 27.457031 150.902344 27.457031 C 147.359375 27.457031 143.820312 28.796875 141.136719 31.480469 Z M 141.136719 31.480469 " fill-opacity="1" fill-rule="evenodd"/></g></svg>