<svg xmlns="http://www.w3.org/2000/svg" xmlns:xlink="http://www.w3.org/1999/xlink" width="256" zoomAndPan="magnify" viewBox="0 0 192 191.999996" height="256" preserveAspectRatio="xMidYMid meet" version="1.0"><defs><clipPath id="fa5e97041c"><path d="M 25.902344 19.199219 L 166.152344 19.199219 L 166.152344 172.949219 L 25.902344 172.949219 Z M 25.902344 19.199219 " clip-rule="nonzero"/></clipPath></defs><g clip-path="url(#fa5e97041c)"><path fill="#000000" d="M 159.472656 45.957031 L 129.421875 45.957031 L 129.421875 41.246094 C 129.417969 40.523438 129.382812 39.804688 129.3125 39.089844 C 129.238281 38.371094 129.132812 37.660156 128.992188 36.953125 C 128.851562 36.246094 128.675781 35.546875 128.464844 34.859375 C 128.253906 34.167969 128.011719 33.492188 127.738281 32.824219 C 127.460938 32.160156 127.152344 31.507812 126.8125 30.871094 C 126.472656 30.238281 126.101562 29.621094 125.703125 29.019531 C 125.300781 28.421875 124.871094 27.84375 124.414062 27.285156 C 123.957031 26.730469 123.476562 26.195312 122.964844 25.6875 C 122.457031 25.175781 121.921875 24.691406 121.367188 24.234375 C 120.808594 23.777344 120.230469 23.347656 119.632812 22.949219 C 119.035156 22.546875 118.417969 22.175781 117.78125 21.835938 C 117.144531 21.496094 116.496094 21.1875 115.832031 20.914062 C 115.164062 20.636719 114.488281 20.394531 113.796875 20.183594 C 113.109375 19.972656 112.410156 19.796875 111.707031 19.65625 C 111 19.515625 110.289062 19.40625 109.570312 19.335938 C 108.855469 19.265625 108.136719 19.226562 107.414062 19.226562 L 84.640625 19.226562 C 83.921875 19.226562 83.203125 19.265625 82.484375 19.335938 C 81.769531 19.40625 81.054688 19.515625 80.351562 19.65625 C 79.644531 19.796875 78.945312 19.972656 78.257812 20.183594 C 77.566406 20.394531 76.890625 20.636719 76.222656 20.914062 C 75.558594 21.1875 74.910156 21.496094 74.273438 21.835938 C 73.636719 22.175781 73.023438 22.546875 72.421875 22.949219 C 71.824219 23.347656 71.246094 23.777344 70.6875 24.234375 C 70.132812 24.691406 69.597656 25.175781 69.089844 25.6875 C 68.582031 26.195312 68.097656 26.730469 67.640625 27.285156 C 67.183594 27.84375 66.753906 28.421875 66.355469 29.019531 C 65.953125 29.621094 65.582031 30.238281 65.242188 30.871094 C 64.902344 31.507812 64.59375 32.160156 64.320312 32.824219 C 64.042969 33.492188 63.800781 34.167969 63.589844 34.859375 C 63.378906 35.546875 63.203125 36.246094 63.0625 36.953125 C 62.921875 37.660156 62.816406 38.371094 62.742188 39.089844 C 62.671875 39.804688 62.636719 40.523438 62.632812 41.246094 L 62.632812 45.957031 L 32.582031 45.957031 C 32.144531 45.957031 31.707031 46 31.277344 46.085938 C 30.847656 46.171875 30.429688 46.296875 30.023438 46.464844 C 29.621094 46.632812 29.234375 46.839844 28.871094 47.082031 C 28.507812 47.328125 28.167969 47.605469 27.859375 47.914062 C 27.546875 48.222656 27.273438 48.5625 27.027344 48.925781 C 26.785156 49.292969 26.578125 49.675781 26.410156 50.082031 C 26.242188 50.488281 26.117188 50.90625 26.03125 51.335938 C 25.945312 51.765625 25.902344 52.199219 25.902344 52.640625 C 25.902344 53.078125 25.945312 53.511719 26.03125 53.941406 C 26.117188 54.375 26.242188 54.792969 26.410156 55.195312 C 26.578125 55.601562 26.785156 55.988281 27.027344 56.351562 C 27.273438 56.714844 27.546875 57.054688 27.859375 57.363281 C 28.167969 57.675781 28.507812 57.953125 28.871094 58.195312 C 29.234375 58.4375 29.621094 58.644531 30.023438 58.8125 C 30.429688 58.980469 30.847656 59.109375 31.277344 59.195312 C 31.707031 59.277344 32.144531 59.320312 32.582031 59.320312 L 42.597656 59.320312 L 42.597656 150.804688 C 42.601562 151.527344 42.636719 152.25 42.707031 152.972656 C 42.78125 153.695312 42.886719 154.410156 43.03125 155.121094 C 43.171875 155.832031 43.347656 156.535156 43.558594 157.226562 C 43.769531 157.921875 44.015625 158.601562 44.292969 159.269531 C 44.570312 159.941406 44.882812 160.59375 45.222656 161.234375 C 45.566406 161.871094 45.9375 162.492188 46.339844 163.09375 C 46.746094 163.695312 47.175781 164.277344 47.636719 164.839844 C 48.097656 165.398438 48.582031 165.933594 49.09375 166.445312 C 49.609375 166.957031 50.144531 167.445312 50.703125 167.902344 C 51.265625 168.363281 51.847656 168.792969 52.449219 169.195312 C 53.050781 169.597656 53.671875 169.96875 54.3125 170.3125 C 54.949219 170.652344 55.605469 170.960938 56.273438 171.238281 C 56.941406 171.515625 57.625 171.761719 58.316406 171.96875 C 59.011719 172.179688 59.710938 172.355469 60.421875 172.496094 C 61.132812 172.640625 61.847656 172.746094 62.570312 172.816406 C 63.292969 172.886719 64.015625 172.921875 64.738281 172.921875 L 127.351562 172.921875 C 128.074219 172.921875 128.796875 172.886719 129.515625 172.8125 C 130.234375 172.742188 130.949219 172.632812 131.660156 172.492188 C 132.371094 172.351562 133.070312 172.171875 133.761719 171.960938 C 134.457031 171.75 135.136719 171.507812 135.804688 171.230469 C 136.472656 170.953125 137.125 170.644531 137.765625 170.300781 C 138.402344 169.960938 139.023438 169.585938 139.625 169.183594 C 140.226562 168.78125 140.804688 168.351562 141.363281 167.890625 C 141.925781 167.433594 142.460938 166.945312 142.972656 166.433594 C 143.484375 165.921875 143.96875 165.386719 144.429688 164.828125 C 144.886719 164.265625 145.316406 163.6875 145.71875 163.085938 C 146.121094 162.484375 146.496094 161.863281 146.835938 161.222656 C 147.175781 160.585938 147.488281 159.933594 147.765625 159.261719 C 148.042969 158.59375 148.285156 157.914062 148.496094 157.222656 C 148.707031 156.527344 148.882812 155.828125 149.027344 155.117188 C 149.167969 154.40625 149.273438 153.691406 149.347656 152.972656 C 149.417969 152.25 149.453125 151.527344 149.457031 150.804688 L 149.457031 59.320312 L 159.472656 59.320312 C 159.914062 59.320312 160.347656 59.277344 160.777344 59.195312 C 161.207031 59.109375 161.625 58.980469 162.03125 58.8125 C 162.433594 58.644531 162.820312 58.4375 163.183594 58.195312 C 163.550781 57.953125 163.886719 57.675781 164.195312 57.363281 C 164.507812 57.054688 164.785156 56.714844 165.027344 56.351562 C 165.269531 55.988281 165.476562 55.601562 165.644531 55.195312 C 165.8125 54.792969 165.9375 54.375 166.023438 53.941406 C 166.109375 53.511719 166.152344 53.078125 166.152344 52.640625 C 166.152344 52.199219 166.109375 51.765625 166.023438 51.335938 C 165.9375 50.90625 165.8125 50.488281 165.644531 50.082031 C 165.476562 49.675781 165.269531 49.292969 165.027344 48.925781 C 164.785156 48.5625 164.507812 48.222656 164.195312 47.914062 C 163.886719 47.605469 163.550781 47.328125 163.183594 47.082031 C 162.820312 46.839844 162.433594 46.632812 162.03125 46.464844 C 161.625 46.296875 161.207031 46.171875 160.777344 46.085938 C 160.347656 46 159.914062 45.957031 159.472656 45.957031 Z M 75.992188 41.246094 C 75.992188 40.675781 76.046875 40.113281 76.15625 39.558594 C 76.269531 39 76.433594 38.460938 76.648438 37.933594 C 76.867188 37.410156 77.132812 36.910156 77.449219 36.4375 C 77.765625 35.964844 78.125 35.527344 78.523438 35.125 C 78.925781 34.726562 79.363281 34.367188 79.835938 34.050781 C 80.308594 33.734375 80.804688 33.46875 81.332031 33.25 C 81.855469 33.035156 82.394531 32.871094 82.953125 32.757812 C 83.511719 32.648438 84.074219 32.59375 84.640625 32.59375 L 107.414062 32.59375 C 107.980469 32.59375 108.542969 32.648438 109.101562 32.757812 C 109.660156 32.871094 110.199219 33.035156 110.722656 33.25 C 111.25 33.46875 111.746094 33.734375 112.21875 34.050781 C 112.691406 34.367188 113.128906 34.726562 113.53125 35.125 C 113.933594 35.527344 114.289062 35.964844 114.605469 36.4375 C 114.921875 36.910156 115.1875 37.410156 115.40625 37.933594 C 115.621094 38.460938 115.785156 39 115.898438 39.558594 C 116.007812 40.113281 116.0625 40.675781 116.0625 41.246094 L 116.0625 45.957031 L 75.992188 45.957031 Z M 136.097656 150.804688 C 136.097656 151.378906 136.039062 151.945312 135.925781 152.507812 C 135.8125 153.070312 135.644531 153.617188 135.425781 154.148438 C 135.203125 154.679688 134.933594 155.183594 134.613281 155.660156 C 134.296875 156.136719 133.933594 156.578125 133.527344 156.984375 C 133.121094 157.390625 132.679688 157.753906 132.203125 158.074219 C 131.726562 158.390625 131.222656 158.660156 130.691406 158.882812 C 130.164062 159.101562 129.617188 159.269531 129.054688 159.382812 C 128.492188 159.496094 127.925781 159.554688 127.351562 159.558594 L 64.738281 159.558594 C 64.164062 159.558594 63.59375 159.5 63.027344 159.390625 C 62.464844 159.277344 61.917969 159.113281 61.386719 158.890625 C 60.855469 158.671875 60.347656 158.402344 59.871094 158.082031 C 59.390625 157.765625 58.949219 157.402344 58.539062 156.996094 C 58.132812 156.589844 57.769531 156.148438 57.449219 155.667969 C 57.128906 155.191406 56.855469 154.6875 56.632812 154.15625 C 56.414062 153.625 56.246094 153.078125 56.128906 152.511719 C 56.015625 151.949219 55.957031 151.378906 55.957031 150.804688 L 55.957031 59.320312 L 136.097656 59.320312 Z M 136.097656 150.804688 " fill-opacity="1" fill-rule="nonzero"/></g><path fill="#000000" d="M 79.332031 74.324219 C 78.894531 74.324219 78.457031 74.367188 78.027344 74.453125 C 77.597656 74.539062 77.179688 74.664062 76.773438 74.832031 C 76.371094 75 75.984375 75.207031 75.621094 75.449219 C 75.257812 75.695312 74.917969 75.972656 74.609375 76.28125 C 74.296875 76.589844 74.023438 76.929688 73.777344 77.292969 C 73.535156 77.660156 73.328125 78.042969 73.160156 78.449219 C 72.992188 78.855469 72.867188 79.273438 72.78125 79.703125 C 72.695312 80.132812 72.652344 80.566406 72.652344 81.007812 L 72.652344 141.148438 C 72.652344 141.585938 72.695312 142.019531 72.78125 142.453125 C 72.867188 142.882812 72.992188 143.300781 73.160156 143.703125 C 73.328125 144.109375 73.535156 144.496094 73.777344 144.859375 C 74.023438 145.226562 74.296875 145.5625 74.609375 145.871094 C 74.917969 146.183594 75.257812 146.460938 75.621094 146.703125 C 75.984375 146.949219 76.371094 147.152344 76.773438 147.320312 C 77.179688 147.488281 77.597656 147.617188 78.027344 147.703125 C 78.457031 147.789062 78.894531 147.832031 79.332031 147.832031 C 79.769531 147.832031 80.203125 147.789062 80.632812 147.703125 C 81.0625 147.617188 81.480469 147.488281 81.886719 147.320312 C 82.292969 147.152344 82.675781 146.949219 83.042969 146.703125 C 83.40625 146.460938 83.742188 146.183594 84.054688 145.871094 C 84.363281 145.5625 84.640625 145.226562 84.882812 144.859375 C 85.128906 144.496094 85.332031 144.109375 85.5 143.703125 C 85.667969 143.300781 85.796875 142.882812 85.882812 142.453125 C 85.96875 142.019531 86.007812 141.585938 86.007812 141.148438 L 86.007812 81.007812 C 86.007812 80.566406 85.96875 80.132812 85.882812 79.703125 C 85.796875 79.273438 85.667969 78.855469 85.5 78.449219 C 85.332031 78.042969 85.128906 77.660156 84.882812 77.292969 C 84.640625 76.929688 84.363281 76.589844 84.054688 76.28125 C 83.742188 75.972656 83.40625 75.695312 83.042969 75.449219 C 82.675781 75.207031 82.292969 75 81.886719 74.832031 C 81.480469 74.664062 81.0625 74.539062 80.632812 74.453125 C 80.203125 74.367188 79.769531 74.324219 79.332031 74.324219 Z M 79.332031 74.324219 " fill-opacity="1" fill-rule="nonzero"/><path fill="#000000" d="M 112.722656 74.324219 C 112.285156 74.324219 111.851562 74.367188 111.421875 74.453125 C 110.992188 74.539062 110.574219 74.664062 110.167969 74.832031 C 109.761719 75 109.378906 75.207031 109.011719 75.449219 C 108.648438 75.695312 108.3125 75.972656 108 76.28125 C 107.691406 76.589844 107.414062 76.929688 107.171875 77.292969 C 106.925781 77.660156 106.722656 78.042969 106.554688 78.449219 C 106.386719 78.855469 106.257812 79.273438 106.171875 79.703125 C 106.089844 80.132812 106.046875 80.566406 106.046875 81.007812 L 106.046875 141.148438 C 106.046875 141.585938 106.089844 142.019531 106.171875 142.453125 C 106.257812 142.882812 106.386719 143.300781 106.554688 143.703125 C 106.722656 144.109375 106.925781 144.496094 107.171875 144.859375 C 107.414062 145.226562 107.691406 145.5625 108 145.871094 C 108.3125 146.183594 108.648438 146.460938 109.011719 146.703125 C 109.378906 146.949219 109.761719 147.152344 110.167969 147.320312 C 110.574219 147.488281 110.992188 147.617188 111.421875 147.703125 C 111.851562 147.789062 112.285156 147.832031 112.722656 147.832031 C 113.164062 147.832031 113.597656 147.789062 114.027344 147.703125 C 114.457031 147.617188 114.875 147.488281 115.28125 147.320312 C 115.683594 147.152344 116.070312 146.949219 116.433594 146.703125 C 116.800781 146.460938 117.136719 146.183594 117.445312 145.871094 C 117.757812 145.5625 118.035156 145.226562 118.277344 144.859375 C 118.519531 144.496094 118.726562 144.109375 118.894531 143.703125 C 119.0625 143.300781 119.1875 142.882812 119.273438 142.453125 C 119.359375 142.019531 119.402344 141.585938 119.402344 141.148438 L 119.402344 81.007812 C 119.402344 80.566406 119.359375 80.132812 119.273438 79.703125 C 119.1875 79.273438 119.0625 78.855469 118.894531 78.449219 C 118.726562 78.042969 118.519531 77.660156 118.277344 77.292969 C 118.035156 76.929688 117.757812 76.589844 117.445312 76.28125 C 117.136719 75.972656 116.800781 75.695312 116.433594 75.449219 C 116.070312 75.207031 115.683594 75 115.28125 74.832031 C 114.875 74.664062 114.457031 74.539062 114.027344 74.453125 C 113.597656 74.367188 113.164062 74.324219 112.722656 74.324219 Z M 112.722656 74.324219 " fill-opacity="1" fill-rule="nonzero"/></svg>