<svg xmlns="http://www.w3.org/2000/svg" xmlns:xlink="http://www.w3.org/1999/xlink" width="256" zoomAndPan="magnify" viewBox="0 0 192 191.999996" height="256" preserveAspectRatio="xMidYMid meet" version="1.0"><defs><clipPath id="04920ab840"><path d="M 28.835938 19.199219 L 163.085938 19.199219 L 163.085938 135 L 28.835938 135 Z M 28.835938 19.199219 " clip-rule="nonzero"/></clipPath><clipPath id="87214abc42"><path d="M 48 105 L 144 105 L 144 172.949219 L 48 172.949219 Z M 48 105 " clip-rule="nonzero"/></clipPath></defs><g clip-path="url(#04920ab840)"><path fill="#000000" d="M 148.699219 48.054688 L 134.316406 48.054688 L 134.316406 24.046875 C 134.316406 21.390625 132.167969 19.246094 129.523438 19.246094 L 62.398438 19.246094 C 59.75 19.246094 57.601562 21.390625 57.601562 24.046875 L 57.601562 48.054688 L 43.21875 48.054688 C 35.289062 48.054688 28.835938 54.519531 28.835938 62.460938 L 28.835938 120.085938 C 28.835938 128.027344 35.289062 134.492188 43.21875 134.492188 L 48.011719 134.492188 L 48.011719 124.886719 L 43.21875 124.886719 C 40.578125 124.886719 38.425781 122.734375 38.425781 120.085938 L 38.425781 62.460938 C 38.425781 59.8125 40.578125 57.660156 43.21875 57.660156 L 148.699219 57.660156 C 151.34375 57.660156 153.496094 59.8125 153.496094 62.460938 L 153.496094 120.085938 C 153.496094 122.734375 151.34375 124.886719 148.699219 124.886719 L 143.90625 124.886719 L 143.90625 134.492188 L 148.699219 134.492188 C 156.632812 134.492188 163.085938 128.027344 163.085938 120.085938 L 163.085938 62.460938 C 163.085938 54.519531 156.632812 48.054688 148.699219 48.054688 Z M 67.191406 48.054688 L 67.191406 28.847656 L 124.726562 28.847656 L 124.726562 48.054688 Z M 67.191406 48.054688 " fill-opacity="1" fill-rule="nonzero"/></g><g clip-path="url(#87214abc42)"><path fill="#000000" d="M 143.90625 115.28125 L 143.90625 105.679688 L 48.011719 105.679688 L 48.011719 115.28125 L 57.601562 115.28125 L 57.601562 168.105469 C 57.601562 170.757812 59.75 172.90625 62.398438 172.90625 L 129.523438 172.90625 C 132.167969 172.90625 134.316406 170.757812 134.316406 168.105469 L 134.316406 115.28125 Z M 124.726562 163.300781 L 67.191406 163.300781 L 67.191406 115.28125 L 124.726562 115.28125 Z M 124.726562 163.300781 " fill-opacity="1" fill-rule="nonzero"/></g><path fill="#000000" d="M 134.316406 67.261719 L 143.90625 67.261719 L 143.90625 76.867188 L 134.316406 76.867188 Z M 134.316406 67.261719 " fill-opacity="1" fill-rule="nonzero"/><path fill="#000000" d="M 76.78125 124.886719 L 115.136719 124.886719 L 115.136719 134.492188 L 76.78125 134.492188 Z M 76.78125 124.886719 " fill-opacity="1" fill-rule="nonzero"/><path fill="#000000" d="M 76.78125 144.09375 L 115.136719 144.09375 L 115.136719 153.699219 L 76.78125 153.699219 Z M 76.78125 144.09375 " fill-opacity="1" fill-rule="nonzero"/></svg>