<svg xmlns="http://www.w3.org/2000/svg" xmlns:xlink="http://www.w3.org/1999/xlink" width="256" zoomAndPan="magnify" viewBox="0 0 192 191.999996" height="256" preserveAspectRatio="xMidYMid meet" version="1.0"><defs><clipPath id="a51aa99633"><path d="M 4.53125 4.53125 L 187.53125 4.53125 L 187.53125 187.53125 L 4.53125 187.53125 Z M 4.53125 4.53125 " clip-rule="nonzero"/></clipPath></defs><g clip-path="url(#a51aa99633)"><path fill="#000000" d="M 153.980469 71.628906 C 172.476562 71.628906 187.53125 56.578125 187.53125 38.078125 C 187.53125 19.582031 172.476562 4.53125 153.980469 4.53125 C 135.484375 4.53125 120.429688 19.582031 120.429688 38.078125 C 120.429688 41.304688 120.914062 44.414062 121.765625 47.367188 L 64.796875 75.851562 C 58.570312 67.511719 48.824219 62.480469 38.078125 62.480469 C 19.582031 62.480469 4.53125 77.53125 4.53125 96.03125 C 4.53125 114.53125 19.582031 129.578125 38.078125 129.578125 C 48.839844 129.578125 58.597656 124.535156 64.804688 116.210938 L 121.765625 144.695312 C 120.914062 147.648438 120.429688 150.753906 120.429688 153.980469 C 120.429688 172.480469 135.484375 187.53125 153.980469 187.53125 C 172.476562 187.53125 187.53125 172.480469 187.53125 153.980469 C 187.53125 135.480469 172.476562 120.429688 153.980469 120.429688 C 143.066406 120.429688 133.378906 125.695312 127.246094 133.792969 L 70.261719 105.300781 C 71.136719 102.308594 71.628906 99.21875 71.628906 96.03125 C 71.628906 92.835938 71.136719 89.742188 70.265625 86.757812 L 127.246094 58.265625 C 133.378906 66.367188 143.066406 71.628906 153.980469 71.628906 Z M 153.980469 132.628906 C 165.75 132.628906 175.328125 142.207031 175.328125 153.980469 C 175.328125 165.75 165.75 175.328125 153.980469 175.328125 C 142.207031 175.328125 132.628906 165.75 132.628906 153.980469 C 132.628906 142.207031 142.207031 132.628906 153.980469 132.628906 Z M 38.078125 117.378906 C 26.308594 117.378906 16.730469 107.800781 16.730469 96.03125 C 16.730469 84.257812 26.308594 74.679688 38.078125 74.679688 C 46.246094 74.679688 53.542969 79.199219 57.164062 86.535156 C 58.667969 89.492188 59.429688 92.683594 59.429688 96.03125 C 59.429688 99.375 58.667969 102.566406 57.128906 105.589844 C 53.542969 112.863281 46.246094 117.378906 38.078125 117.378906 Z M 153.980469 16.730469 C 165.75 16.730469 175.328125 26.308594 175.328125 38.078125 C 175.328125 49.851562 165.75 59.429688 153.980469 59.429688 C 142.207031 59.429688 132.628906 49.851562 132.628906 38.078125 C 132.628906 26.308594 142.207031 16.730469 153.980469 16.730469 Z M 153.980469 16.730469 " fill-opacity="1" fill-rule="nonzero"/></g></svg>