<svg xmlns="http://www.w3.org/2000/svg" xmlns:xlink="http://www.w3.org/1999/xlink" width="256" zoomAndPan="magnify" viewBox="0 0 192 191.999996" height="256" preserveAspectRatio="xMidYMid meet" version="1.0"><defs><clipPath id="a8e7441b47"><path d="M 19.199219 20.304688 L 172.949219 20.304688 L 172.949219 172.515625 L 19.199219 172.515625 Z M 19.199219 20.304688 " clip-rule="nonzero"/></clipPath><clipPath id="3c5e48aca5"><path d="M 172.796875 24.054688 L 172.796875 169.011719 C 172.796875 171.082031 171.117188 172.761719 169.046875 172.761719 L 22.949219 172.761719 C 20.878906 172.761719 19.199219 171.082031 19.199219 169.011719 L 19.199219 24.054688 C 19.199219 21.980469 20.878906 20.304688 22.949219 20.304688 L 169.046875 20.304688 C 171.117188 20.304688 172.796875 21.980469 172.796875 24.054688 Z M 172.796875 24.054688 " clip-rule="nonzero"/></clipPath><clipPath id="5936867dca"><path d="M 19.199219 111.996094 L 172.804688 111.996094 L 172.804688 120.917969 L 19.199219 120.917969 Z M 19.199219 111.996094 " clip-rule="nonzero"/></clipPath><clipPath id="8f361bc762"><path d="M 172.800781 115.746094 L 172.800781 117.167969 C 172.800781 119.238281 171.121094 120.917969 169.050781 120.917969 L 22.949219 120.917969 C 20.878906 120.917969 19.199219 119.238281 19.199219 117.167969 L 19.199219 115.746094 C 19.199219 113.675781 20.878906 111.996094 22.949219 111.996094 L 169.050781 111.996094 C 171.121094 111.996094 172.800781 113.675781 172.800781 115.746094 Z M 172.800781 115.746094 " clip-rule="nonzero"/></clipPath><clipPath id="e615e83c58"><path d="M 0.199219 0.996094 L 153.804688 0.996094 L 153.804688 9.917969 L 0.199219 9.917969 Z M 0.199219 0.996094 " clip-rule="nonzero"/></clipPath><clipPath id="61ddc91d04"><path d="M 153.800781 4.746094 L 153.800781 6.167969 C 153.800781 8.238281 152.121094 9.917969 150.050781 9.917969 L 3.949219 9.917969 C 1.878906 9.917969 0.199219 8.238281 0.199219 6.167969 L 0.199219 4.746094 C 0.199219 2.675781 1.878906 0.996094 3.949219 0.996094 L 150.050781 0.996094 C 152.121094 0.996094 153.800781 2.675781 153.800781 4.746094 Z M 153.800781 4.746094 " clip-rule="nonzero"/></clipPath><clipPath id="740cbc4e53"><rect x="0" width="154" y="0" height="10"/></clipPath></defs><g clip-path="url(#a8e7441b47)"><g clip-path="url(#3c5e48aca5)"><path stroke-linecap="butt" transform="matrix(0.75, 0, 0, 0.75, 19.200001, 20.267379)" fill="none" stroke-linejoin="miter" d="M 204.795845 5.049745 L 204.795845 198.325799 C 204.795845 201.086215 202.556262 203.325799 199.795845 203.325799 L 4.998958 203.325799 C 2.238541 203.325799 -0.00104273 201.086215 -0.00104273 198.325799 L -0.00104273 5.049745 C -0.00104273 2.28412 2.238541 0.0497446 4.998958 0.0497446 L 199.795845 0.0497446 C 202.556262 0.0497446 204.795845 2.28412 204.795845 5.049745 Z M 204.795845 5.049745 " stroke="#000000" stroke-width="8" stroke-opacity="1" stroke-miterlimit="4"/></g></g><g clip-path="url(#5936867dca)"><g clip-path="url(#8f361bc762)"><g transform="matrix(1, 0, 0, 1, 19, 111)"><g clip-path="url(#740cbc4e53)"><g clip-path="url(#e615e83c58)"><g clip-path="url(#61ddc91d04)"><path fill="#020202" d="M 0.199219 0.996094 L 153.804688 0.996094 L 153.804688 9.917969 L 0.199219 9.917969 Z M 0.199219 0.996094 " fill-opacity="1" fill-rule="nonzero"/></g></g></g></g></g></g></svg>