<svg xmlns="http://www.w3.org/2000/svg" xmlns:xlink="http://www.w3.org/1999/xlink" width="256" zoomAndPan="magnify" viewBox="0 0 192 191.999996" height="256" preserveAspectRatio="xMidYMid meet" version="1.0"><defs><clipPath id="da701cfe28"><path d="M 23 44 L 169.21875 44 L 169.21875 172.949219 L 23 172.949219 Z M 23 44 " clip-rule="nonzero"/></clipPath><clipPath id="e1997d9d68"><path d="M 86 19.199219 L 106 19.199219 L 106 99 L 86 99 Z M 86 19.199219 " clip-rule="nonzero"/></clipPath></defs><g clip-path="url(#da701cfe28)"><path fill="#000000" d="M 96.101562 172.875 C 55.863281 172.875 23.125 140.152344 23.125 99.925781 C 23.125 79.824219 31.546875 60.417969 46.234375 46.671875 C 49.96875 43.191406 55.800781 43.386719 59.289062 47.101562 C 62.769531 50.824219 62.578125 56.664062 58.855469 60.148438 C 47.722656 70.566406 41.589844 84.691406 41.589844 99.929688 C 41.589844 129.976562 66.042969 154.417969 96.101562 154.417969 C 126.160156 154.417969 150.613281 129.976562 150.613281 99.929688 C 150.613281 85.035156 144.707031 71.121094 133.988281 60.753906 C 130.324219 57.214844 130.226562 51.367188 133.769531 47.703125 C 137.316406 44.054688 143.15625 43.9375 146.828125 47.488281 C 161.171875 61.363281 169.078125 79.988281 169.078125 99.929688 C 169.078125 140.152344 136.339844 172.875 96.101562 172.875 Z M 96.101562 172.875 " fill-opacity="1" fill-rule="nonzero"/></g><g clip-path="url(#e1997d9d68)"><path fill="#000000" d="M 96.101562 98.140625 C 91 98.140625 86.867188 94.007812 86.867188 88.910156 L 86.867188 28.429688 C 86.867188 23.332031 91 19.199219 96.101562 19.199219 C 101.203125 19.199219 105.335938 23.332031 105.335938 28.429688 L 105.335938 88.914062 C 105.332031 94.011719 101.203125 98.140625 96.101562 98.140625 Z M 96.101562 98.140625 " fill-opacity="1" fill-rule="nonzero"/></g></svg>