<svg xmlns="http://www.w3.org/2000/svg" xmlns:xlink="http://www.w3.org/1999/xlink" width="256" zoomAndPan="magnify" viewBox="0 0 192 191.999996" height="256" preserveAspectRatio="xMidYMid meet" version="1.0"><defs><g/><clipPath id="c32392907e"><rect x="0" width="162" y="0" height="92"/></clipPath></defs><path stroke-linecap="butt" transform="matrix(0.75, 0.000000000000000181, -0.000000000000000181, 0.75, 7.65965, 132.502549)" fill="none" stroke-linejoin="miter" d="M 7.500675 5.00181 L 228.073606 5.00181 " stroke="#000000" stroke-width="10" stroke-opacity="1" stroke-miterlimit="4"/><path stroke-linecap="round" transform="matrix(0.75, 0.000000000000000181, -0.000000000000000181, 0.75, 7.65965, 132.502549)" fill="none" stroke-linejoin="round" d="M 5.000675 -9.998191 L 5.000675 20.00181 " stroke="#000000" stroke-width="10" stroke-opacity="1" stroke-miterlimit="4"/><path stroke-linecap="round" transform="matrix(0.75, 0.000000000000000181, -0.000000000000000181, 0.75, 7.65965, 132.502549)" fill="none" stroke-linejoin="round" d="M 230.573606 -9.998191 L 230.573606 20.00181 " stroke="#000000" stroke-width="10" stroke-opacity="1" stroke-miterlimit="4"/><g transform="matrix(1, 0, 0, 1, 15, 47)"><g clip-path="url(#c32392907e)"><g fill="#000000" fill-opacity="1"><g transform="translate(4.595409, 70.378771)"><g><path d="M 27.234375 0 L 25.375 -4.75 L 25.125 -4.75 C 23.519531 -2.726562 21.867188 -1.328125 20.171875 -0.546875 C 18.472656 0.234375 16.253906 0.625 13.515625 0.625 C 10.160156 0.625 7.515625 -0.332031 5.578125 -2.25 C 3.648438 -4.164062 2.6875 -6.898438 2.6875 -10.453125 C 2.6875 -14.171875 3.984375 -16.910156 6.578125 -18.671875 C 9.179688 -20.429688 13.101562 -21.40625 18.34375 -21.59375 L 24.40625 -21.78125 L 24.40625 -23.3125 C 24.40625 -26.863281 22.59375 -28.640625 18.96875 -28.640625 C 16.164062 -28.640625 12.878906 -27.789062 9.109375 -26.09375 L 5.953125 -32.546875 C 9.972656 -34.648438 14.4375 -35.703125 19.34375 -35.703125 C 24.03125 -35.703125 27.625 -34.679688 30.125 -32.640625 C 32.632812 -30.597656 33.890625 -27.488281 33.890625 -23.3125 L 33.890625 0 Z M 24.40625 -16.21875 L 20.71875 -16.09375 C 17.945312 -16 15.878906 -15.492188 14.515625 -14.578125 C 13.160156 -13.660156 12.484375 -12.265625 12.484375 -10.390625 C 12.484375 -7.703125 14.03125 -6.359375 17.125 -6.359375 C 19.332031 -6.359375 21.097656 -6.992188 22.421875 -8.265625 C 23.742188 -9.535156 24.40625 -11.222656 24.40625 -13.328125 Z M 24.40625 -16.21875 "/></g></g><g transform="translate(43.306414, 70.378771)"><g><path d="M 24.46875 -35.640625 C 28.601562 -35.640625 31.835938 -34.023438 34.171875 -30.796875 C 36.515625 -27.578125 37.6875 -23.164062 37.6875 -17.5625 C 37.6875 -11.78125 36.476562 -7.300781 34.0625 -4.125 C 31.65625 -0.957031 28.375 0.625 24.21875 0.625 C 20.113281 0.625 16.890625 -0.863281 14.546875 -3.84375 L 13.890625 -3.84375 L 12.296875 0 L 5 0 L 5 -48.703125 L 14.546875 -48.703125 L 14.546875 -37.359375 C 14.546875 -35.921875 14.421875 -33.617188 14.171875 -30.453125 L 14.546875 -30.453125 C 16.785156 -33.910156 20.09375 -35.640625 24.46875 -35.640625 Z M 21.40625 -28.015625 C 19.050781 -28.015625 17.328125 -27.285156 16.234375 -25.828125 C 15.148438 -24.378906 14.585938 -21.988281 14.546875 -18.65625 L 14.546875 -17.625 C 14.546875 -13.863281 15.101562 -11.171875 16.21875 -9.546875 C 17.34375 -7.921875 19.113281 -7.109375 21.53125 -7.109375 C 23.488281 -7.109375 25.046875 -8.007812 26.203125 -9.8125 C 27.367188 -11.613281 27.953125 -14.238281 27.953125 -17.6875 C 27.953125 -21.125 27.363281 -23.703125 26.1875 -25.421875 C 25.019531 -27.148438 23.425781 -28.015625 21.40625 -28.015625 Z M 21.40625 -28.015625 "/></g></g><g transform="translate(83.863779, 70.378771)"><g><path d="M 19.21875 0.625 C 8.320312 0.625 2.875 -5.351562 2.875 -17.3125 C 2.875 -23.25 4.351562 -27.785156 7.3125 -30.921875 C 10.28125 -34.066406 14.53125 -35.640625 20.0625 -35.640625 C 24.101562 -35.640625 27.734375 -34.847656 30.953125 -33.265625 L 28.140625 -25.875 C 26.628906 -26.488281 25.226562 -26.988281 23.9375 -27.375 C 22.644531 -27.757812 21.351562 -27.953125 20.0625 -27.953125 C 15.09375 -27.953125 12.609375 -24.425781 12.609375 -17.375 C 12.609375 -10.53125 15.09375 -7.109375 20.0625 -7.109375 C 21.894531 -7.109375 23.59375 -7.351562 25.15625 -7.84375 C 26.726562 -8.332031 28.296875 -9.097656 29.859375 -10.140625 L 29.859375 -1.96875 C 28.316406 -0.988281 26.753906 -0.3125 25.171875 0.0625 C 23.597656 0.4375 21.613281 0.625 19.21875 0.625 Z M 19.21875 0.625 "/></g></g><g transform="translate(116.816639, 70.378771)"><g><path d="M 16.09375 0.625 C 11.976562 0.625 8.742188 -0.96875 6.390625 -4.15625 C 4.046875 -7.351562 2.875 -11.78125 2.875 -17.4375 C 2.875 -23.164062 4.066406 -27.628906 6.453125 -30.828125 C 8.847656 -34.035156 12.144531 -35.640625 16.34375 -35.640625 C 20.738281 -35.640625 24.09375 -33.929688 26.40625 -30.515625 L 26.734375 -30.515625 C 26.242188 -33.117188 26 -35.445312 26 -37.5 L 26 -48.703125 L 35.578125 -48.703125 L 35.578125 0 L 28.265625 0 L 26.40625 -4.53125 L 26 -4.53125 C 23.832031 -1.09375 20.53125 0.625 16.09375 0.625 Z M 19.4375 -6.984375 C 21.875 -6.984375 23.660156 -7.691406 24.796875 -9.109375 C 25.929688 -10.523438 26.550781 -12.9375 26.65625 -16.34375 L 26.65625 -17.375 C 26.65625 -21.125 26.078125 -23.8125 24.921875 -25.4375 C 23.765625 -27.070312 21.882812 -27.890625 19.28125 -27.890625 C 17.15625 -27.890625 15.5 -26.984375 14.3125 -25.171875 C 13.132812 -23.367188 12.546875 -20.75 12.546875 -17.3125 C 12.546875 -13.863281 13.140625 -11.28125 14.328125 -9.5625 C 15.523438 -7.84375 17.226562 -6.984375 19.4375 -6.984375 Z M 19.4375 -6.984375 "/></g></g></g></g></g><path stroke-linecap="butt" transform="matrix(0.75, 0.000000000000000271, -0.000000000000000271, 0.75, 7.65965, 51.997554)" fill="none" stroke-linejoin="miter" d="M 7.500675 4.998053 L 228.073606 4.998053 " stroke="#000000" stroke-width="10" stroke-opacity="1" stroke-miterlimit="4"/><path stroke-linecap="round" transform="matrix(0.75, 0.000000000000000271, -0.000000000000000271, 0.75, 7.65965, 51.997554)" fill="none" stroke-linejoin="round" d="M 5.000675 -10.001948 L 5.000675 19.998054 " stroke="#000000" stroke-width="10" stroke-opacity="1" stroke-miterlimit="4"/><path stroke-linecap="round" transform="matrix(0.75, 0.000000000000000271, -0.000000000000000271, 0.75, 7.65965, 51.997554)" fill="none" stroke-linejoin="round" d="M 230.573606 -10.001948 L 230.573606 19.998054 " stroke="#000000" stroke-width="10" stroke-opacity="1" stroke-miterlimit="4"/></svg>