<svg xmlns="http://www.w3.org/2000/svg" xmlns:xlink="http://www.w3.org/1999/xlink" width="256" zoomAndPan="magnify" viewBox="0 0 192 191.999996" height="256" preserveAspectRatio="xMidYMid meet" version="1.0"><defs><clipPath id="ab48c40a4f"><path d="M 0.0625 0.199219 L 42.472656 0.199219 L 42.472656 42.609375 L 0.0625 42.609375 Z M 0.0625 0.199219 " clip-rule="nonzero"/></clipPath><clipPath id="50e243d2f5"><path d="M 0.0625 55.835938 L 42.472656 55.835938 L 42.472656 98.246094 L 0.0625 98.246094 Z M 0.0625 55.835938 " clip-rule="nonzero"/></clipPath><clipPath id="ab67b8c003"><path d="M 0.0625 111.46875 L 42.472656 111.46875 L 42.472656 153.882812 L 0.0625 153.882812 Z M 0.0625 111.46875 " clip-rule="nonzero"/></clipPath><clipPath id="21654d54c5"><path d="M 53.609375 0.199219 L 96.019531 0.199219 L 96.019531 42.609375 L 53.609375 42.609375 Z M 53.609375 0.199219 " clip-rule="nonzero"/></clipPath><clipPath id="c60a850a33"><path d="M 53.609375 55.835938 L 96.019531 55.835938 L 96.019531 98.246094 L 53.609375 98.246094 Z M 53.609375 55.835938 " clip-rule="nonzero"/></clipPath><clipPath id="1eff9a77e8"><path d="M 53.609375 111.46875 L 96.019531 111.46875 L 96.019531 153.882812 L 53.609375 153.882812 Z M 53.609375 111.46875 " clip-rule="nonzero"/></clipPath><clipPath id="1bb776acf9"><rect x="0" width="97" y="0" height="155"/></clipPath></defs><g transform="matrix(1, 0, 0, 1, 48, 19)"><g clip-path="url(#1bb776acf9)"><g clip-path="url(#ab48c40a4f)"><path fill="#000000" d="M 42.464844 21.398438 C 42.464844 22.09375 42.429688 22.789062 42.363281 23.480469 C 42.292969 24.167969 42.191406 24.855469 42.058594 25.535156 C 41.921875 26.21875 41.753906 26.890625 41.550781 27.554688 C 41.351562 28.21875 41.117188 28.871094 40.851562 29.515625 C 40.585938 30.15625 40.289062 30.78125 39.960938 31.394531 C 39.632812 32.007812 39.277344 32.601562 38.890625 33.179688 C 38.503906 33.757812 38.09375 34.316406 37.652344 34.851562 C 37.210938 35.386719 36.746094 35.902344 36.253906 36.394531 C 35.761719 36.882812 35.25 37.351562 34.710938 37.789062 C 34.175781 38.230469 33.617188 38.644531 33.042969 39.03125 C 32.464844 39.414062 31.867188 39.773438 31.257812 40.101562 C 30.644531 40.425781 30.015625 40.722656 29.375 40.988281 C 28.734375 41.253906 28.082031 41.488281 27.417969 41.691406 C 26.75 41.890625 26.078125 42.058594 25.398438 42.195312 C 24.71875 42.332031 24.03125 42.433594 23.339844 42.5 C 22.648438 42.570312 21.957031 42.601562 21.261719 42.601562 C 20.566406 42.601562 19.875 42.570312 19.183594 42.5 C 18.492188 42.433594 17.804688 42.332031 17.125 42.195312 C 16.445312 42.058594 15.769531 41.890625 15.105469 41.691406 C 14.441406 41.488281 13.789062 41.253906 13.148438 40.988281 C 12.503906 40.722656 11.878906 40.425781 11.265625 40.101562 C 10.652344 39.773438 10.058594 39.414062 9.480469 39.03125 C 8.90625 38.644531 8.347656 38.230469 7.808594 37.789062 C 7.273438 37.351562 6.757812 36.882812 6.269531 36.394531 C 5.777344 35.902344 5.3125 35.386719 4.871094 34.851562 C 4.429688 34.316406 4.019531 33.757812 3.632812 33.179688 C 3.246094 32.601562 2.890625 32.007812 2.5625 31.394531 C 2.234375 30.78125 1.9375 30.15625 1.671875 29.515625 C 1.40625 28.871094 1.171875 28.21875 0.972656 27.554688 C 0.769531 26.890625 0.601562 26.21875 0.464844 25.535156 C 0.332031 24.855469 0.230469 24.167969 0.160156 23.480469 C 0.09375 22.789062 0.0585938 22.09375 0.0585938 21.398438 C 0.0585938 20.707031 0.09375 20.011719 0.160156 19.320312 C 0.230469 18.632812 0.332031 17.945312 0.464844 17.265625 C 0.601562 16.582031 0.769531 15.910156 0.972656 15.246094 C 1.171875 14.582031 1.40625 13.929688 1.671875 13.285156 C 1.9375 12.644531 2.234375 12.019531 2.5625 11.40625 C 2.890625 10.792969 3.246094 10.199219 3.632812 9.621094 C 4.019531 9.042969 4.429688 8.484375 4.871094 7.949219 C 5.3125 7.414062 5.777344 6.898438 6.269531 6.40625 C 6.757812 5.917969 7.273438 5.449219 7.808594 5.011719 C 8.347656 4.570312 8.90625 4.15625 9.480469 3.769531 C 10.058594 3.386719 10.652344 3.027344 11.265625 2.699219 C 11.878906 2.375 12.507812 2.078125 13.148438 1.8125 C 13.789062 1.546875 14.441406 1.3125 15.105469 1.109375 C 15.769531 0.910156 16.445312 0.742188 17.125 0.605469 C 17.804688 0.46875 18.492188 0.367188 19.183594 0.300781 C 19.875 0.230469 20.566406 0.199219 21.261719 0.199219 C 21.957031 0.199219 22.648438 0.230469 23.339844 0.300781 C 24.03125 0.367188 24.71875 0.46875 25.398438 0.605469 C 26.078125 0.742188 26.75 0.910156 27.417969 1.109375 C 28.082031 1.3125 28.734375 1.546875 29.375 1.8125 C 30.015625 2.078125 30.644531 2.375 31.257812 2.699219 C 31.867188 3.027344 32.464844 3.386719 33.042969 3.769531 C 33.617188 4.15625 34.175781 4.570312 34.710938 5.011719 C 35.25 5.449219 35.761719 5.917969 36.253906 6.40625 C 36.746094 6.898438 37.210938 7.414062 37.652344 7.949219 C 38.09375 8.484375 38.503906 9.042969 38.890625 9.621094 C 39.277344 10.199219 39.632812 10.792969 39.960938 11.40625 C 40.289062 12.019531 40.585938 12.644531 40.851562 13.285156 C 41.117188 13.929688 41.351562 14.582031 41.550781 15.246094 C 41.753906 15.910156 41.921875 16.582031 42.058594 17.265625 C 42.191406 17.945312 42.292969 18.632812 42.363281 19.320312 C 42.429688 20.011719 42.464844 20.707031 42.464844 21.398438 Z M 42.464844 21.398438 " fill-opacity="1" fill-rule="nonzero"/></g><g clip-path="url(#50e243d2f5)"><path fill="#000000" d="M 42.464844 77.035156 C 42.464844 77.730469 42.429688 78.421875 42.363281 79.113281 C 42.292969 79.804688 42.191406 80.492188 42.058594 81.171875 C 41.921875 81.851562 41.753906 82.527344 41.550781 83.191406 C 41.351562 83.855469 41.117188 84.507812 40.851562 85.148438 C 40.585938 85.792969 40.289062 86.417969 39.960938 87.03125 C 39.632812 87.644531 39.277344 88.238281 38.890625 88.816406 C 38.503906 89.394531 38.09375 89.949219 37.652344 90.488281 C 37.210938 91.023438 36.746094 91.539062 36.253906 92.027344 C 35.761719 92.519531 35.25 92.984375 34.710938 93.425781 C 34.175781 93.867188 33.617188 94.277344 33.042969 94.664062 C 32.464844 95.050781 31.867188 95.40625 31.257812 95.734375 C 30.644531 96.0625 30.015625 96.359375 29.375 96.625 C 28.734375 96.890625 28.082031 97.125 27.417969 97.324219 C 26.75 97.527344 26.078125 97.695312 25.398438 97.832031 C 24.71875 97.964844 24.03125 98.066406 23.339844 98.136719 C 22.648438 98.203125 21.957031 98.238281 21.261719 98.238281 C 20.566406 98.238281 19.875 98.203125 19.183594 98.136719 C 18.492188 98.066406 17.804688 97.964844 17.125 97.832031 C 16.445312 97.695312 15.769531 97.527344 15.105469 97.324219 C 14.441406 97.125 13.789062 96.890625 13.148438 96.625 C 12.503906 96.359375 11.878906 96.0625 11.265625 95.734375 C 10.652344 95.40625 10.058594 95.050781 9.480469 94.664062 C 8.90625 94.277344 8.347656 93.867188 7.808594 93.425781 C 7.273438 92.984375 6.757812 92.519531 6.269531 92.027344 C 5.777344 91.539062 5.3125 91.023438 4.871094 90.488281 C 4.429688 89.949219 4.019531 89.394531 3.632812 88.816406 C 3.246094 88.238281 2.890625 87.644531 2.5625 87.03125 C 2.234375 86.417969 1.9375 85.792969 1.671875 85.148438 C 1.40625 84.507812 1.171875 83.855469 0.972656 83.191406 C 0.769531 82.527344 0.601562 81.851562 0.464844 81.171875 C 0.332031 80.492188 0.230469 79.804688 0.160156 79.113281 C 0.09375 78.421875 0.0585938 77.730469 0.0585938 77.035156 C 0.0585938 76.339844 0.09375 75.648438 0.160156 74.957031 C 0.230469 74.265625 0.332031 73.578125 0.464844 72.898438 C 0.601562 72.21875 0.769531 71.546875 0.972656 70.878906 C 1.171875 70.214844 1.40625 69.5625 1.671875 68.921875 C 1.9375 68.28125 2.234375 67.652344 2.5625 67.039062 C 2.890625 66.429688 3.246094 65.832031 3.632812 65.253906 C 4.019531 64.679688 4.429688 64.121094 4.871094 63.585938 C 5.3125 63.046875 5.777344 62.535156 6.269531 62.042969 C 6.757812 61.550781 7.273438 61.085938 7.808594 60.644531 C 8.347656 60.203125 8.90625 59.792969 9.480469 59.40625 C 10.058594 59.019531 10.652344 58.664062 11.265625 58.335938 C 11.878906 58.007812 12.507812 57.710938 13.148438 57.445312 C 13.789062 57.179688 14.441406 56.945312 15.105469 56.746094 C 15.769531 56.542969 16.445312 56.375 17.125 56.238281 C 17.804688 56.105469 18.492188 56.003906 19.183594 55.933594 C 19.875 55.867188 20.566406 55.832031 21.261719 55.832031 C 21.957031 55.832031 22.648438 55.867188 23.339844 55.933594 C 24.03125 56.003906 24.71875 56.105469 25.398438 56.238281 C 26.078125 56.375 26.75 56.542969 27.417969 56.746094 C 28.082031 56.945312 28.734375 57.179688 29.375 57.445312 C 30.015625 57.710938 30.644531 58.007812 31.257812 58.335938 C 31.867188 58.664062 32.464844 59.019531 33.042969 59.40625 C 33.617188 59.792969 34.175781 60.203125 34.710938 60.644531 C 35.25 61.085938 35.761719 61.550781 36.253906 62.042969 C 36.746094 62.535156 37.210938 63.046875 37.652344 63.585938 C 38.09375 64.121094 38.503906 64.679688 38.890625 65.253906 C 39.277344 65.832031 39.632812 66.429688 39.960938 67.039062 C 40.289062 67.652344 40.585938 68.28125 40.851562 68.921875 C 41.117188 69.5625 41.351562 70.214844 41.550781 70.878906 C 41.753906 71.546875 41.921875 72.21875 42.058594 72.898438 C 42.191406 73.578125 42.292969 74.265625 42.363281 74.957031 C 42.429688 75.648438 42.464844 76.339844 42.464844 77.035156 Z M 42.464844 77.035156 " fill-opacity="1" fill-rule="nonzero"/></g><g clip-path="url(#ab67b8c003)"><path fill="#000000" d="M 42.464844 132.671875 C 42.464844 133.363281 42.429688 134.058594 42.363281 134.75 C 42.292969 135.441406 42.191406 136.125 42.058594 136.808594 C 41.921875 137.488281 41.753906 138.160156 41.550781 138.824219 C 41.351562 139.488281 41.117188 140.144531 40.851562 140.785156 C 40.585938 141.425781 40.289062 142.054688 39.960938 142.664062 C 39.632812 143.277344 39.277344 143.871094 38.890625 144.449219 C 38.503906 145.027344 38.09375 145.585938 37.652344 146.121094 C 37.210938 146.660156 36.746094 147.171875 36.253906 147.664062 C 35.761719 148.15625 35.25 148.621094 34.710938 149.0625 C 34.175781 149.5 33.617188 149.914062 33.042969 150.300781 C 32.464844 150.6875 31.867188 151.042969 31.257812 151.371094 C 30.644531 151.695312 30.015625 151.992188 29.375 152.257812 C 28.734375 152.523438 28.082031 152.757812 27.417969 152.960938 C 26.75 153.160156 26.078125 153.332031 25.398438 153.464844 C 24.71875 153.601562 24.03125 153.703125 23.339844 153.769531 C 22.648438 153.839844 21.957031 153.875 21.261719 153.875 C 20.566406 153.875 19.875 153.839844 19.183594 153.769531 C 18.492188 153.703125 17.804688 153.601562 17.125 153.464844 C 16.445312 153.332031 15.769531 153.160156 15.105469 152.960938 C 14.441406 152.757812 13.789062 152.523438 13.148438 152.257812 C 12.503906 151.992188 11.878906 151.695312 11.265625 151.371094 C 10.652344 151.042969 10.058594 150.6875 9.480469 150.300781 C 8.90625 149.914062 8.347656 149.5 7.808594 149.0625 C 7.273438 148.621094 6.757812 148.15625 6.269531 147.664062 C 5.777344 147.171875 5.3125 146.660156 4.871094 146.121094 C 4.429688 145.585938 4.019531 145.027344 3.632812 144.449219 C 3.246094 143.871094 2.890625 143.277344 2.5625 142.664062 C 2.234375 142.054688 1.9375 141.425781 1.671875 140.785156 C 1.40625 140.144531 1.171875 139.488281 0.972656 138.824219 C 0.769531 138.160156 0.601562 137.488281 0.464844 136.808594 C 0.332031 136.125 0.230469 135.441406 0.160156 134.75 C 0.09375 134.058594 0.0585938 133.363281 0.0585938 132.671875 C 0.0585938 131.976562 0.09375 131.285156 0.160156 130.59375 C 0.230469 129.902344 0.332031 129.214844 0.464844 128.535156 C 0.601562 127.851562 0.769531 127.179688 0.972656 126.515625 C 1.171875 125.851562 1.40625 125.199219 1.671875 124.554688 C 1.9375 123.914062 2.234375 123.289062 2.5625 122.675781 C 2.890625 122.0625 3.246094 121.46875 3.632812 120.890625 C 4.019531 120.3125 4.429688 119.757812 4.871094 119.21875 C 5.3125 118.683594 5.777344 118.167969 6.269531 117.679688 C 6.757812 117.1875 7.273438 116.722656 7.808594 116.28125 C 8.347656 115.839844 8.90625 115.425781 9.480469 115.039062 C 10.058594 114.65625 10.652344 114.296875 11.265625 113.972656 C 11.878906 113.644531 12.507812 113.347656 13.148438 113.082031 C 13.789062 112.816406 14.441406 112.582031 15.105469 112.378906 C 15.769531 112.179688 16.445312 112.011719 17.125 111.875 C 17.804688 111.738281 18.492188 111.636719 19.183594 111.570312 C 19.875 111.5 20.566406 111.46875 21.261719 111.46875 C 21.957031 111.46875 22.648438 111.5 23.339844 111.570312 C 24.03125 111.636719 24.71875 111.738281 25.398438 111.875 C 26.078125 112.011719 26.75 112.179688 27.417969 112.378906 C 28.082031 112.582031 28.734375 112.816406 29.375 113.082031 C 30.015625 113.347656 30.644531 113.644531 31.257812 113.972656 C 31.867188 114.296875 32.464844 114.65625 33.042969 115.039062 C 33.617188 115.425781 34.175781 115.839844 34.710938 116.28125 C 35.25 116.722656 35.761719 117.1875 36.253906 117.679688 C 36.746094 118.167969 37.210938 118.683594 37.652344 119.21875 C 38.09375 119.757812 38.503906 120.3125 38.890625 120.890625 C 39.277344 121.46875 39.632812 122.0625 39.960938 122.675781 C 40.289062 123.289062 40.585938 123.914062 40.851562 124.554688 C 41.117188 125.199219 41.351562 125.851562 41.550781 126.515625 C 41.753906 127.179688 41.921875 127.851562 42.058594 128.535156 C 42.191406 129.214844 42.292969 129.902344 42.363281 130.59375 C 42.429688 131.285156 42.464844 131.976562 42.464844 132.671875 Z M 42.464844 132.671875 " fill-opacity="1" fill-rule="nonzero"/></g><g clip-path="url(#21654d54c5)"><path fill="#000000" d="M 96.011719 21.398438 C 96.011719 22.09375 95.976562 22.789062 95.910156 23.480469 C 95.84375 24.167969 95.742188 24.855469 95.605469 25.535156 C 95.46875 26.21875 95.300781 26.890625 95.097656 27.554688 C 94.898438 28.21875 94.664062 28.871094 94.398438 29.515625 C 94.132812 30.15625 93.835938 30.78125 93.507812 31.394531 C 93.179688 32.007812 92.824219 32.601562 92.4375 33.179688 C 92.054688 33.757812 91.640625 34.316406 91.199219 34.851562 C 90.757812 35.386719 90.292969 35.902344 89.800781 36.394531 C 89.3125 36.882812 88.796875 37.351562 88.261719 37.789062 C 87.722656 38.230469 87.167969 38.644531 86.589844 39.03125 C 86.011719 39.414062 85.417969 39.773438 84.804688 40.101562 C 84.191406 40.425781 83.566406 40.722656 82.921875 40.988281 C 82.28125 41.253906 81.628906 41.488281 80.964844 41.691406 C 80.300781 41.890625 79.628906 42.058594 78.945312 42.195312 C 78.265625 42.332031 77.578125 42.433594 76.886719 42.5 C 76.195312 42.570312 75.503906 42.601562 74.808594 42.601562 C 74.113281 42.601562 73.421875 42.570312 72.730469 42.5 C 72.039062 42.433594 71.355469 42.332031 70.671875 42.195312 C 69.992188 42.058594 69.320312 41.890625 68.65625 41.691406 C 67.988281 41.488281 67.335938 41.253906 66.695312 40.988281 C 66.054688 40.722656 65.425781 40.425781 64.8125 40.101562 C 64.203125 39.773438 63.605469 39.414062 63.03125 39.03125 C 62.453125 38.644531 61.894531 38.230469 61.359375 37.789062 C 60.820312 37.351562 60.308594 36.882812 59.816406 36.394531 C 59.324219 35.902344 58.859375 35.386719 58.417969 34.851562 C 57.980469 34.316406 57.566406 33.757812 57.179688 33.179688 C 56.792969 32.601562 56.4375 32.007812 56.109375 31.394531 C 55.78125 30.78125 55.484375 30.15625 55.21875 29.515625 C 54.953125 28.871094 54.722656 28.21875 54.519531 27.554688 C 54.316406 26.890625 54.148438 26.21875 54.015625 25.535156 C 53.878906 24.855469 53.777344 24.167969 53.707031 23.480469 C 53.640625 22.789062 53.605469 22.09375 53.605469 21.398438 C 53.605469 20.707031 53.640625 20.011719 53.707031 19.320312 C 53.777344 18.632812 53.878906 17.945312 54.015625 17.265625 C 54.148438 16.582031 54.316406 15.910156 54.519531 15.246094 C 54.722656 14.582031 54.953125 13.929688 55.21875 13.285156 C 55.484375 12.644531 55.78125 12.019531 56.109375 11.40625 C 56.4375 10.792969 56.792969 10.199219 57.179688 9.621094 C 57.566406 9.042969 57.980469 8.484375 58.417969 7.949219 C 58.859375 7.414062 59.324219 6.898438 59.816406 6.40625 C 60.308594 5.917969 60.820312 5.449219 61.359375 5.011719 C 61.894531 4.570312 62.453125 4.15625 63.03125 3.769531 C 63.605469 3.386719 64.203125 3.027344 64.8125 2.699219 C 65.425781 2.375 66.054688 2.078125 66.695312 1.8125 C 67.335938 1.546875 67.988281 1.3125 68.65625 1.109375 C 69.320312 0.910156 69.992188 0.742188 70.671875 0.605469 C 71.355469 0.46875 72.039062 0.367188 72.730469 0.300781 C 73.421875 0.230469 74.113281 0.199219 74.808594 0.199219 C 75.503906 0.199219 76.195312 0.230469 76.886719 0.300781 C 77.578125 0.367188 78.265625 0.46875 78.945312 0.605469 C 79.628906 0.742188 80.300781 0.910156 80.964844 1.109375 C 81.628906 1.3125 82.28125 1.546875 82.921875 1.8125 C 83.566406 2.078125 84.191406 2.375 84.804688 2.699219 C 85.417969 3.027344 86.011719 3.386719 86.589844 3.769531 C 87.167969 4.15625 87.722656 4.570312 88.261719 5.011719 C 88.796875 5.449219 89.3125 5.917969 89.800781 6.40625 C 90.292969 6.898438 90.757812 7.414062 91.199219 7.949219 C 91.640625 8.484375 92.054688 9.042969 92.4375 9.621094 C 92.824219 10.199219 93.179688 10.792969 93.507812 11.40625 C 93.835938 12.019531 94.132812 12.644531 94.398438 13.285156 C 94.664062 13.929688 94.898438 14.582031 95.097656 15.246094 C 95.300781 15.910156 95.46875 16.582031 95.605469 17.265625 C 95.742188 17.945312 95.84375 18.632812 95.910156 19.320312 C 95.976562 20.011719 96.011719 20.707031 96.011719 21.398438 Z M 96.011719 21.398438 " fill-opacity="1" fill-rule="nonzero"/></g><g clip-path="url(#c60a850a33)"><path fill="#000000" d="M 96.011719 77.035156 C 96.011719 77.730469 95.976562 78.421875 95.910156 79.113281 C 95.84375 79.804688 95.742188 80.492188 95.605469 81.171875 C 95.46875 81.851562 95.300781 82.527344 95.097656 83.191406 C 94.898438 83.855469 94.664062 84.507812 94.398438 85.148438 C 94.132812 85.792969 93.835938 86.417969 93.507812 87.03125 C 93.179688 87.644531 92.824219 88.238281 92.4375 88.816406 C 92.054688 89.394531 91.640625 89.949219 91.199219 90.488281 C 90.757812 91.023438 90.292969 91.539062 89.800781 92.027344 C 89.3125 92.519531 88.796875 92.984375 88.261719 93.425781 C 87.722656 93.867188 87.167969 94.277344 86.589844 94.664062 C 86.011719 95.050781 85.417969 95.40625 84.804688 95.734375 C 84.191406 96.0625 83.566406 96.359375 82.921875 96.625 C 82.28125 96.890625 81.628906 97.125 80.964844 97.324219 C 80.300781 97.527344 79.628906 97.695312 78.945312 97.832031 C 78.265625 97.964844 77.578125 98.066406 76.886719 98.136719 C 76.195312 98.203125 75.503906 98.238281 74.808594 98.238281 C 74.113281 98.238281 73.421875 98.203125 72.730469 98.136719 C 72.039062 98.066406 71.355469 97.964844 70.671875 97.832031 C 69.992188 97.695312 69.320312 97.527344 68.65625 97.324219 C 67.988281 97.125 67.335938 96.890625 66.695312 96.625 C 66.054688 96.359375 65.425781 96.0625 64.8125 95.734375 C 64.203125 95.40625 63.605469 95.050781 63.03125 94.664062 C 62.453125 94.277344 61.894531 93.867188 61.359375 93.425781 C 60.820312 92.984375 60.308594 92.519531 59.816406 92.027344 C 59.324219 91.539062 58.859375 91.023438 58.417969 90.488281 C 57.980469 89.949219 57.566406 89.394531 57.179688 88.816406 C 56.792969 88.238281 56.4375 87.644531 56.109375 87.03125 C 55.78125 86.417969 55.484375 85.792969 55.21875 85.148438 C 54.953125 84.507812 54.722656 83.855469 54.519531 83.191406 C 54.316406 82.527344 54.148438 81.851562 54.015625 81.171875 C 53.878906 80.492188 53.777344 79.804688 53.707031 79.113281 C 53.640625 78.421875 53.605469 77.730469 53.605469 77.035156 C 53.605469 76.339844 53.640625 75.648438 53.707031 74.957031 C 53.777344 74.265625 53.878906 73.578125 54.015625 72.898438 C 54.148438 72.21875 54.316406 71.546875 54.519531 70.878906 C 54.722656 70.214844 54.953125 69.5625 55.21875 68.921875 C 55.484375 68.28125 55.78125 67.652344 56.109375 67.039062 C 56.4375 66.429688 56.792969 65.832031 57.179688 65.253906 C 57.566406 64.679688 57.980469 64.121094 58.417969 63.585938 C 58.859375 63.046875 59.324219 62.535156 59.816406 62.042969 C 60.308594 61.550781 60.820312 61.085938 61.359375 60.644531 C 61.894531 60.203125 62.453125 59.792969 63.03125 59.40625 C 63.605469 59.019531 64.203125 58.664062 64.8125 58.335938 C 65.425781 58.007812 66.054688 57.710938 66.695312 57.445312 C 67.335938 57.179688 67.988281 56.945312 68.65625 56.746094 C 69.320312 56.542969 69.992188 56.375 70.671875 56.238281 C 71.355469 56.105469 72.039062 56.003906 72.730469 55.933594 C 73.421875 55.867188 74.113281 55.832031 74.808594 55.832031 C 75.503906 55.832031 76.195312 55.867188 76.886719 55.933594 C 77.578125 56.003906 78.265625 56.105469 78.945312 56.238281 C 79.628906 56.375 80.300781 56.542969 80.964844 56.746094 C 81.628906 56.945312 82.28125 57.179688 82.921875 57.445312 C 83.566406 57.710938 84.191406 58.007812 84.804688 58.335938 C 85.417969 58.664062 86.011719 59.019531 86.589844 59.40625 C 87.167969 59.792969 87.722656 60.203125 88.261719 60.644531 C 88.796875 61.085938 89.3125 61.550781 89.800781 62.042969 C 90.292969 62.535156 90.757812 63.046875 91.199219 63.585938 C 91.640625 64.121094 92.054688 64.679688 92.4375 65.253906 C 92.824219 65.832031 93.179688 66.429688 93.507812 67.039062 C 93.835938 67.652344 94.132812 68.28125 94.398438 68.921875 C 94.664062 69.5625 94.898438 70.214844 95.097656 70.878906 C 95.300781 71.546875 95.46875 72.21875 95.605469 72.898438 C 95.742188 73.578125 95.84375 74.265625 95.910156 74.957031 C 95.976562 75.648438 96.011719 76.339844 96.011719 77.035156 Z M 96.011719 77.035156 " fill-opacity="1" fill-rule="nonzero"/></g><g clip-path="url(#1eff9a77e8)"><path fill="#000000" d="M 96.011719 132.671875 C 96.011719 133.363281 95.976562 134.058594 95.910156 134.75 C 95.84375 135.441406 95.742188 136.125 95.605469 136.808594 C 95.46875 137.488281 95.300781 138.160156 95.097656 138.824219 C 94.898438 139.488281 94.664062 140.144531 94.398438 140.785156 C 94.132812 141.425781 93.835938 142.054688 93.507812 142.664062 C 93.179688 143.277344 92.824219 143.871094 92.4375 144.449219 C 92.054688 145.027344 91.640625 145.585938 91.199219 146.121094 C 90.757812 146.660156 90.292969 147.171875 89.800781 147.664062 C 89.3125 148.15625 88.796875 148.621094 88.261719 149.0625 C 87.722656 149.5 87.167969 149.914062 86.589844 150.300781 C 86.011719 150.6875 85.417969 151.042969 84.804688 151.371094 C 84.191406 151.695312 83.566406 151.992188 82.921875 152.257812 C 82.28125 152.523438 81.628906 152.757812 80.964844 152.960938 C 80.300781 153.160156 79.628906 153.332031 78.945312 153.464844 C 78.265625 153.601562 77.578125 153.703125 76.886719 153.769531 C 76.195312 153.839844 75.503906 153.875 74.808594 153.875 C 74.113281 153.875 73.421875 153.839844 72.730469 153.769531 C 72.039062 153.703125 71.355469 153.601562 70.671875 153.464844 C 69.992188 153.332031 69.320312 153.160156 68.65625 152.960938 C 67.988281 152.757812 67.335938 152.523438 66.695312 152.257812 C 66.054688 151.992188 65.425781 151.695312 64.8125 151.371094 C 64.203125 151.042969 63.605469 150.6875 63.03125 150.300781 C 62.453125 149.914062 61.894531 149.5 61.359375 149.0625 C 60.820312 148.621094 60.308594 148.15625 59.816406 147.664062 C 59.324219 147.171875 58.859375 146.660156 58.417969 146.121094 C 57.980469 145.585938 57.566406 145.027344 57.179688 144.449219 C 56.792969 143.871094 56.4375 143.277344 56.109375 142.664062 C 55.78125 142.054688 55.484375 141.425781 55.21875 140.785156 C 54.953125 140.144531 54.722656 139.488281 54.519531 138.824219 C 54.316406 138.160156 54.148438 137.488281 54.015625 136.808594 C 53.878906 136.125 53.777344 135.441406 53.707031 134.75 C 53.640625 134.058594 53.605469 133.363281 53.605469 132.671875 C 53.605469 131.976562 53.640625 131.285156 53.707031 130.59375 C 53.777344 129.902344 53.878906 129.214844 54.015625 128.535156 C 54.148438 127.851562 54.316406 127.179688 54.519531 126.515625 C 54.722656 125.851562 54.953125 125.199219 55.21875 124.554688 C 55.484375 123.914062 55.78125 123.289062 56.109375 122.675781 C 56.4375 122.0625 56.792969 121.46875 57.179688 120.890625 C 57.566406 120.3125 57.980469 119.757812 58.417969 119.21875 C 58.859375 118.683594 59.324219 118.167969 59.816406 117.679688 C 60.308594 117.1875 60.820312 116.722656 61.359375 116.28125 C 61.894531 115.839844 62.453125 115.425781 63.03125 115.039062 C 63.605469 114.65625 64.203125 114.296875 64.8125 113.972656 C 65.425781 113.644531 66.054688 113.347656 66.695312 113.082031 C 67.335938 112.816406 67.988281 112.582031 68.65625 112.378906 C 69.320312 112.179688 69.992188 112.011719 70.671875 111.875 C 71.355469 111.738281 72.039062 111.636719 72.730469 111.570312 C 73.421875 111.5 74.113281 111.46875 74.808594 111.46875 C 75.503906 111.46875 76.195312 111.5 76.886719 111.570312 C 77.578125 111.636719 78.265625 111.738281 78.945312 111.875 C 79.628906 112.011719 80.300781 112.179688 80.964844 112.378906 C 81.628906 112.582031 82.28125 112.816406 82.921875 113.082031 C 83.566406 113.347656 84.191406 113.644531 84.804688 113.972656 C 85.417969 114.296875 86.011719 114.65625 86.589844 115.039062 C 87.167969 115.425781 87.722656 115.839844 88.261719 116.28125 C 88.796875 116.722656 89.3125 117.1875 89.800781 117.679688 C 90.292969 118.167969 90.757812 118.683594 91.199219 119.21875 C 91.640625 119.757812 92.054688 120.3125 92.4375 120.890625 C 92.824219 121.46875 93.179688 122.0625 93.507812 122.675781 C 93.835938 123.289062 94.132812 123.914062 94.398438 124.554688 C 94.664062 125.199219 94.898438 125.851562 95.097656 126.515625 C 95.300781 127.179688 95.46875 127.851562 95.605469 128.535156 C 95.742188 129.214844 95.84375 129.902344 95.910156 130.59375 C 95.976562 131.285156 96.011719 131.976562 96.011719 132.671875 Z M 96.011719 132.671875 " fill-opacity="1" fill-rule="nonzero"/></g></g></g></svg>