<svg xmlns="http://www.w3.org/2000/svg" xmlns:xlink="http://www.w3.org/1999/xlink" width="256" zoomAndPan="magnify" viewBox="0 0 192 191.999996" height="256" preserveAspectRatio="xMidYMid meet" version="1.0"><defs><clipPath id="b0b851cf8a"><path d="M 9.578125 9.578125 L 182.078125 9.578125 L 182.078125 182.078125 L 9.578125 182.078125 Z M 9.578125 9.578125 " clip-rule="nonzero"/></clipPath></defs><g clip-path="url(#b0b851cf8a)"><path fill="#000000" d="M 95.828125 62.882812 C 101.042969 62.882812 103.917969 55.964844 103.917969 51.492188 C 103.917969 47.019531 100.300781 43.402344 95.828125 43.402344 C 91.355469 43.402344 87.738281 47.019531 87.738281 51.492188 C 87.738281 55.964844 90.613281 62.882812 95.828125 62.882812 Z M 95.828125 9.578125 C 119.644531 9.578125 141.207031 19.234375 156.816406 34.839844 C 172.421875 50.449219 182.078125 72.011719 182.078125 95.828125 C 182.078125 119.644531 172.421875 141.207031 156.816406 156.816406 C 141.207031 172.421875 119.644531 182.078125 95.828125 182.078125 C 72.011719 182.078125 50.449219 172.421875 34.839844 156.816406 C 19.234375 141.207031 9.578125 119.644531 9.578125 95.828125 C 9.578125 72.011719 19.234375 50.449219 34.839844 34.839844 C 50.449219 19.234375 72.011719 9.578125 95.828125 9.578125 Z M 149.273438 42.382812 C 135.59375 28.707031 116.699219 20.25 95.828125 20.25 C 74.957031 20.25 56.0625 28.707031 42.382812 42.382812 C 28.707031 56.0625 20.25 74.957031 20.25 95.828125 C 20.25 116.699219 28.707031 135.59375 42.382812 149.273438 C 56.0625 162.949219 74.957031 171.40625 95.828125 171.40625 C 116.699219 171.40625 135.59375 162.949219 149.273438 149.273438 C 162.949219 135.59375 171.40625 116.699219 171.40625 95.828125 C 171.40625 74.957031 162.949219 56.0625 149.273438 42.382812 Z M 78.554688 108.0625 L 65.417969 139.128906 C 62.699219 145.15625 70.71875 148.632812 73.835938 142.632812 L 81.292969 128.925781 C 81.871094 127.863281 82.113281 126.8125 82.050781 125.601562 L 81.347656 111.855469 L 80.957031 108.414062 C 80.894531 107.835938 80.460938 107.394531 79.890625 107.308594 C 79.316406 107.226562 78.777344 107.53125 78.554688 108.0625 Z M 110.359375 128.925781 L 117.820312 142.632812 C 120.9375 148.632812 128.957031 145.15625 126.238281 139.128906 L 113.101562 108.0625 C 112.878906 107.53125 112.339844 107.226562 111.765625 107.308594 C 111.191406 107.394531 110.761719 107.835938 110.699219 108.414062 L 110.308594 111.855469 L 109.605469 125.601562 C 109.542969 126.8125 109.785156 127.863281 110.359375 128.925781 Z M 128.707031 64.503906 L 143.460938 54.394531 C 147.613281 51.847656 144.703125 45.933594 139.722656 48.667969 L 112.789062 60.878906 C 112.269531 61.113281 111.976562 61.652344 112.070312 62.21875 C 112.15625 62.785156 112.597656 63.207031 113.167969 63.269531 L 127.289062 64.855469 C 127.808594 64.914062 128.273438 64.800781 128.707031 64.503906 Z M 78.867188 60.878906 L 51.933594 48.667969 C 46.953125 45.933594 44.042969 51.847656 48.195312 54.394531 L 62.949219 64.503906 C 63.382812 64.800781 63.847656 64.914062 64.367188 64.855469 L 78.484375 63.269531 C 79.058594 63.207031 79.496094 62.785156 79.585938 62.21875 C 79.675781 61.652344 79.386719 61.113281 78.867188 60.878906 Z M 95.828125 152.804688 L 90.449219 152.804688 C 88.375 152.804688 86.671875 151.15625 86.566406 149.078125 L 84.652344 111.585938 L 81.078125 79.96875 C 80.984375 79.140625 80.304688 78.519531 79.46875 78.503906 L 45.941406 77.753906 C 40.898438 77.914062 40.160156 70.625 45.4375 70.3125 L 81.675781 66.242188 C 83.113281 66.144531 88.230469 65.503906 90.660156 65.398438 C 91.414062 65.367188 92.023438 65.371094 92.367188 65.4375 L 94.921875 66.023438 C 95.242188 66.101562 95.535156 66.144531 95.828125 66.144531 C 96.121094 66.144531 96.414062 66.101562 96.734375 66.023438 L 99.289062 65.4375 C 99.628906 65.371094 100.238281 65.367188 100.996094 65.398438 C 103.425781 65.503906 108.542969 66.144531 109.980469 66.242188 L 146.21875 70.3125 C 151.492188 70.625 150.753906 77.914062 145.714844 77.753906 L 112.1875 78.503906 C 111.351562 78.519531 110.671875 79.140625 110.578125 79.96875 L 107.003906 111.585938 L 105.089844 149.078125 C 104.984375 151.15625 103.28125 152.804688 101.203125 152.804688 Z M 95.828125 152.804688 " fill-opacity="1" fill-rule="evenodd"/></g></svg>