<svg xmlns="http://www.w3.org/2000/svg" xmlns:xlink="http://www.w3.org/1999/xlink" width="256" zoomAndPan="magnify" viewBox="0 0 192 191.999996" height="256" preserveAspectRatio="xMidYMid meet" version="1.0"><defs><clipPath id="fa939bcb20"><path d="M 19.199219 20.304688 L 172.949219 20.304688 L 172.949219 172.515625 L 19.199219 172.515625 Z M 19.199219 20.304688 " clip-rule="nonzero"/></clipPath><clipPath id="221530da8b"><path d="M 172.796875 24.054688 L 172.796875 169.011719 C 172.796875 171.082031 171.117188 172.761719 169.046875 172.761719 L 22.949219 172.761719 C 20.878906 172.761719 19.199219 171.082031 19.199219 169.011719 L 19.199219 24.054688 C 19.199219 21.980469 20.878906 20.304688 22.949219 20.304688 L 169.046875 20.304688 C 171.117188 20.304688 172.796875 21.980469 172.796875 24.054688 Z M 172.796875 24.054688 " clip-rule="nonzero"/></clipPath><clipPath id="2e72588473"><path d="M 19.199219 19.199219 L 172.964844 19.199219 L 172.964844 73.121094 L 19.199219 73.121094 Z M 19.199219 19.199219 " clip-rule="nonzero"/></clipPath><clipPath id="33233f6a74"><path d="M 172.800781 22.949219 L 172.800781 69.371094 C 172.800781 71.445312 171.121094 73.121094 169.050781 73.121094 L 22.949219 73.121094 C 20.878906 73.121094 19.199219 71.445312 19.199219 69.371094 L 19.199219 22.949219 C 19.199219 20.878906 20.878906 19.199219 22.949219 19.199219 L 169.050781 19.199219 C 171.121094 19.199219 172.800781 20.878906 172.800781 22.949219 Z M 172.800781 22.949219 " clip-rule="nonzero"/></clipPath><clipPath id="d0e966edb9"><path d="M 0.199219 0.199219 L 153.800781 0.199219 L 153.800781 54.121094 L 0.199219 54.121094 Z M 0.199219 0.199219 " clip-rule="nonzero"/></clipPath><clipPath id="30a184a176"><path d="M 153.800781 3.949219 L 153.800781 50.371094 C 153.800781 52.445312 152.121094 54.121094 150.050781 54.121094 L 3.949219 54.121094 C 1.878906 54.121094 0.199219 52.445312 0.199219 50.371094 L 0.199219 3.949219 C 0.199219 1.878906 1.878906 0.199219 3.949219 0.199219 L 150.050781 0.199219 C 152.121094 0.199219 153.800781 1.878906 153.800781 3.949219 Z M 153.800781 3.949219 " clip-rule="nonzero"/></clipPath><clipPath id="f829432a90"><rect x="0" width="154" y="0" height="55"/></clipPath><clipPath id="742320b9ab"><path d="M 19.199219 117.761719 L 172.84375 117.761719 L 172.84375 172.773438 L 19.199219 172.773438 Z M 19.199219 117.761719 " clip-rule="nonzero"/></clipPath><clipPath id="9106fab3c5"><path d="M 172.800781 121.511719 L 172.800781 169.023438 C 172.800781 171.09375 171.121094 172.773438 169.050781 172.773438 L 22.949219 172.773438 C 20.878906 172.773438 19.199219 171.09375 19.199219 169.023438 L 19.199219 121.511719 C 19.199219 119.441406 20.878906 117.761719 22.949219 117.761719 L 169.050781 117.761719 C 171.121094 117.761719 172.800781 119.441406 172.800781 121.511719 Z M 172.800781 121.511719 " clip-rule="nonzero"/></clipPath><clipPath id="958b56fea5"><path d="M 0.199219 0.761719 L 153.84375 0.761719 L 153.84375 55.773438 L 0.199219 55.773438 Z M 0.199219 0.761719 " clip-rule="nonzero"/></clipPath><clipPath id="9fd1ac366e"><path d="M 153.800781 4.511719 L 153.800781 52.023438 C 153.800781 54.09375 152.121094 55.773438 150.050781 55.773438 L 3.949219 55.773438 C 1.878906 55.773438 0.199219 54.09375 0.199219 52.023438 L 0.199219 4.511719 C 0.199219 2.441406 1.878906 0.761719 3.949219 0.761719 L 150.050781 0.761719 C 152.121094 0.761719 153.800781 2.441406 153.800781 4.511719 Z M 153.800781 4.511719 " clip-rule="nonzero"/></clipPath><clipPath id="d6e43ac62c"><rect x="0" width="154" y="0" height="56"/></clipPath></defs><g clip-path="url(#fa939bcb20)"><g clip-path="url(#221530da8b)"><path stroke-linecap="butt" transform="matrix(0.75, 0, 0, 0.75, 19.200001, 20.267401)" fill="none" stroke-linejoin="miter" d="M 204.795845 5.049715 L 204.795845 198.325769 C 204.795845 201.086186 202.556262 203.32577 199.795845 203.32577 L 4.998958 203.32577 C 2.238541 203.32577 -0.00104273 201.086186 -0.00104273 198.325769 L -0.00104273 5.049715 C -0.00104273 2.28409 2.238541 0.0497152 4.998958 0.0497152 L 199.795845 0.0497152 C 202.556262 0.0497152 204.795845 2.28409 204.795845 5.049715 Z M 204.795845 5.049715 " stroke="#000000" stroke-width="8" stroke-opacity="1" stroke-miterlimit="4"/></g></g><g clip-path="url(#2e72588473)"><g clip-path="url(#33233f6a74)"><g transform="matrix(1, 0, 0, 1, 19, 19)"><g clip-path="url(#f829432a90)"><g clip-path="url(#d0e966edb9)"><g clip-path="url(#30a184a176)"><path fill="#020202" d="M 0.199219 0.199219 L 153.753906 0.199219 L 153.753906 54.121094 L 0.199219 54.121094 Z M 0.199219 0.199219 " fill-opacity="1" fill-rule="nonzero"/></g></g></g></g></g></g><g clip-path="url(#742320b9ab)"><g clip-path="url(#9106fab3c5)"><g transform="matrix(1, 0, 0, 1, 19, 117)"><g clip-path="url(#d6e43ac62c)"><g clip-path="url(#958b56fea5)"><g clip-path="url(#9fd1ac366e)"><path fill="#020202" d="M 0.199219 0.761719 L 153.84375 0.761719 L 153.84375 55.773438 L 0.199219 55.773438 Z M 0.199219 0.761719 " fill-opacity="1" fill-rule="nonzero"/></g></g></g></g></g></g></svg>