<svg xmlns="http://www.w3.org/2000/svg" xmlns:xlink="http://www.w3.org/1999/xlink" width="256" zoomAndPan="magnify" viewBox="0 0 192 191.999996" height="256" preserveAspectRatio="xMidYMid meet" version="1.0"><defs><clipPath id="b459049679"><path d="M 27.050781 12.171875 L 165.800781 12.171875 L 165.800781 180.921875 L 27.050781 180.921875 Z M 27.050781 12.171875 " clip-rule="nonzero"/></clipPath></defs><g clip-path="url(#b459049679)"><path fill="#000000" d="M 153.46875 121.117188 L 92.667969 121.117188 L 92.667969 116.242188 C 92.667969 113.46875 90.421875 111.21875 87.648438 111.21875 L 39.382812 111.21875 L 39.382812 49.128906 L 53.3125 49.128906 C 58.726562 49.128906 63.117188 44.742188 63.117188 39.328125 L 63.117188 24.832031 L 153.46875 24.832031 Z M 150.824219 141.796875 L 139.527344 141.796875 L 139.527344 168.800781 L 128.449219 168.800781 L 128.449219 141.796875 L 117.152344 141.796875 L 117.152344 132.941406 L 150.824219 132.941406 Z M 103.675781 168.800781 L 96.597656 157.277344 L 89.515625 168.800781 L 77.144531 168.800781 L 89.507812 150.113281 L 78.269531 132.941406 L 90.472656 132.941406 L 96.816406 143.96875 L 102.992188 132.941406 L 115.074219 132.941406 L 103.914062 150.308594 L 116.117188 168.800781 Z M 75.703125 141.796875 L 64.402344 141.796875 L 64.402344 168.800781 L 53.320312 168.800781 L 53.320312 141.796875 L 42.027344 141.796875 L 42.027344 132.941406 L 75.703125 132.941406 Z M 159.277344 12.46875 L 53.738281 12.46875 C 52.003906 12.46875 50.339844 13.160156 49.109375 14.382812 L 28.945312 34.5625 C 27.714844 35.792969 27.023438 37.457031 27.023438 39.195312 L 27.023438 174.078125 C 27.023438 177.6875 29.957031 180.621094 33.574219 180.621094 L 159.277344 180.621094 C 162.894531 180.621094 165.828125 177.6875 165.828125 174.078125 L 165.828125 19.015625 C 165.828125 15.402344 162.894531 12.46875 159.277344 12.46875 " fill-opacity="1" fill-rule="nonzero"/></g></svg>