<svg xmlns="http://www.w3.org/2000/svg" xmlns:xlink="http://www.w3.org/1999/xlink" width="256" zoomAndPan="magnify" viewBox="0 0 192 191.999996" height="256" preserveAspectRatio="xMidYMid meet" version="1.0"><defs><clipPath id="afd8d9a286"><path d="M 0.199219 68.976562 L 154 68.976562 L 154 86.964844 L 0.199219 86.964844 Z M 0.199219 68.976562 " clip-rule="nonzero"/></clipPath><clipPath id="1bee8ec732"><path d="M 0.199219 78 C 0.199219 82.984375 4.238281 87.023438 9.222656 87.023438 L 144.777344 87.023438 C 149.761719 87.023438 153.800781 82.984375 153.800781 78 C 153.800781 73.015625 149.761719 68.976562 144.777344 68.976562 L 9.222656 68.976562 C 4.238281 68.976562 0.199219 73.015625 0.199219 78 Z M 0.199219 78 " clip-rule="nonzero"/></clipPath><clipPath id="1ea5221e2c"><path d="M 68.019531 1.195312 L 86.011719 1.195312 L 86.011719 155 L 68.019531 155 Z M 68.019531 1.195312 " clip-rule="nonzero"/></clipPath><clipPath id="39b5a0d9ea"><path d="M 76.984375 1.195312 C 72.003906 1.195312 67.960938 5.234375 67.960938 10.21875 L 67.960938 145.769531 C 67.960938 150.753906 72.003906 154.796875 76.984375 154.796875 C 81.96875 154.796875 86.011719 150.753906 86.011719 145.769531 L 86.011719 10.21875 C 86.011719 5.234375 81.96875 1.195312 76.984375 1.195312 Z M 76.984375 1.195312 " clip-rule="nonzero"/></clipPath><clipPath id="b1feb40aed"><rect x="0" width="155" y="0" height="156"/></clipPath></defs><g transform="matrix(1, 0, 0, 1, 19, 18)"><g clip-path="url(#b1feb40aed)"><g clip-path="url(#afd8d9a286)"><g clip-path="url(#1bee8ec732)"><path fill="#939598" d="M 0.355469 68.976562 L 154.238281 68.976562 L 154.238281 86.964844 L 0.355469 86.964844 Z M 0.355469 68.976562 " fill-opacity="1" fill-rule="nonzero"/><path fill="#020202" d="M 0.355469 68.976562 L 154.238281 68.976562 L 154.238281 86.964844 L 0.355469 86.964844 Z M 0.355469 68.976562 " fill-opacity="1" fill-rule="nonzero"/></g></g><g clip-path="url(#1ea5221e2c)"><g clip-path="url(#39b5a0d9ea)"><path fill="#939598" d="M 86.011719 1.351562 L 86.011719 155.234375 L 68.019531 155.234375 L 68.019531 1.351562 Z M 86.011719 1.351562 " fill-opacity="1" fill-rule="nonzero"/><path fill="#020202" d="M 86.011719 1.351562 L 86.011719 155.234375 L 68.019531 155.234375 L 68.019531 1.351562 Z M 86.011719 1.351562 " fill-opacity="1" fill-rule="nonzero"/></g></g></g></g></svg>