<svg xmlns="http://www.w3.org/2000/svg" xmlns:xlink="http://www.w3.org/1999/xlink" width="256" zoomAndPan="magnify" viewBox="0 0 192 191.999996" height="256" preserveAspectRatio="xMidYMid meet" version="1.0"><defs><clipPath id="db345d7add"><path d="M 19.199219 19.199219 L 172 19.199219 L 172 172.949219 L 19.199219 172.949219 Z M 19.199219 19.199219 " clip-rule="nonzero"/></clipPath></defs><g clip-path="url(#db345d7add)"><path fill="#000000" d="M 110.335938 172.148438 L 81.195312 172.148438 C 80.707031 172.171875 80.222656 172.148438 79.738281 172.074219 C 79.253906 172.003906 78.78125 171.886719 78.320312 171.71875 C 77.859375 171.554688 77.417969 171.347656 77 171.097656 C 76.578125 170.84375 76.1875 170.554688 75.824219 170.226562 C 75.460938 169.898438 75.132812 169.539062 74.839844 169.148438 C 74.546875 168.753906 74.296875 168.339844 74.085938 167.894531 C 73.875 167.453125 73.707031 166.996094 73.585938 166.523438 C 73.464844 166.046875 73.390625 165.566406 73.363281 165.078125 L 70.730469 148.855469 C 67.410156 147.496094 64.316406 145.746094 61.441406 143.601562 L 45.167969 150.375 C 44.316406 150.753906 43.421875 150.960938 42.488281 150.996094 C 41.558594 151.03125 40.652344 150.890625 39.773438 150.574219 C 38.839844 150.277344 38 149.808594 37.25 149.179688 C 36.503906 148.546875 35.902344 147.800781 35.449219 146.933594 L 20.992188 121.84375 C 20.757812 121.445312 20.558594 121.027344 20.398438 120.59375 C 20.238281 120.160156 20.117188 119.710938 20.039062 119.253906 C 19.960938 118.796875 19.925781 118.339844 19.933594 117.875 C 19.9375 117.410156 19.988281 116.953125 20.078125 116.496094 C 20.167969 116.042969 20.300781 115.601562 20.472656 115.171875 C 20.644531 114.738281 20.855469 114.328125 21.105469 113.9375 C 21.351562 113.546875 21.632812 113.179688 21.949219 112.839844 C 22.265625 112.5 22.609375 112.191406 22.980469 111.914062 L 36.089844 101.425781 C 35.847656 99.648438 35.75 97.867188 35.792969 96.074219 C 35.828125 94.695312 35.976562 93.324219 36.234375 91.96875 L 36.402344 90.964844 L 22.730469 80.058594 C 22.265625 79.6875 21.90625 79.234375 21.648438 78.699219 C 21.253906 78.101562 20.933594 77.464844 20.695312 76.792969 C 20.453125 76.117188 20.296875 75.421875 20.226562 74.710938 C 20.15625 73.996094 20.175781 73.285156 20.28125 72.578125 C 20.386719 71.871094 20.574219 71.183594 20.851562 70.523438 L 35.535156 44.28125 C 35.722656 43.960938 35.941406 43.671875 36.199219 43.40625 C 36.722656 42.71875 37.347656 42.136719 38.066406 41.660156 C 38.789062 41.1875 39.570312 40.84375 40.410156 40.636719 C 41.25 40.429688 42.097656 40.367188 42.960938 40.453125 C 43.820312 40.535156 44.640625 40.761719 45.425781 41.125 L 61.441406 47.796875 C 63.972656 46.011719 66.644531 44.480469 69.074219 43.101562 L 70.570312 42.246094 L 72.628906 26.550781 C 72.691406 26.105469 72.820312 25.679688 73.019531 25.277344 C 73.34375 24.546875 73.757812 23.871094 74.265625 23.25 C 74.773438 22.628906 75.351562 22.085938 76.003906 21.621094 C 76.65625 21.15625 77.359375 20.789062 78.109375 20.511719 C 78.863281 20.238281 79.636719 20.066406 80.4375 20 L 109.566406 20 C 110.058594 19.976562 110.542969 20.003906 111.027344 20.074219 C 111.511719 20.144531 111.984375 20.265625 112.445312 20.429688 C 112.90625 20.59375 113.347656 20.800781 113.769531 21.054688 C 114.1875 21.304688 114.582031 21.59375 114.945312 21.921875 C 115.308594 22.25 115.636719 22.609375 115.929688 23.003906 C 116.222656 23.394531 116.472656 23.8125 116.683594 24.253906 C 116.898438 24.695312 117.0625 25.152344 117.183594 25.625 C 117.304688 26.101562 117.378906 26.582031 117.40625 27.070312 L 120.042969 43.296875 C 123.359375 44.65625 126.457031 46.40625 129.332031 48.546875 L 145.59375 41.773438 C 146.449219 41.398438 147.34375 41.195312 148.273438 41.160156 C 149.207031 41.125 150.113281 41.265625 150.992188 41.574219 C 151.925781 41.875 152.765625 42.339844 153.515625 42.96875 C 154.261719 43.601562 154.863281 44.347656 155.316406 45.21875 L 169.746094 70.304688 C 169.984375 70.703125 170.183594 71.121094 170.34375 71.554688 C 170.503906 71.992188 170.621094 72.4375 170.699219 72.894531 C 170.777344 73.351562 170.816406 73.8125 170.808594 74.273438 C 170.800781 74.738281 170.753906 75.199219 170.664062 75.652344 C 170.570312 76.105469 170.441406 76.550781 170.265625 76.980469 C 170.09375 77.410156 169.886719 77.820312 169.636719 78.214844 C 169.390625 78.605469 169.105469 78.972656 168.792969 79.3125 C 168.476562 79.652344 168.132812 79.957031 167.761719 80.234375 L 154.644531 90.726562 C 154.882812 92.5 154.984375 94.285156 154.941406 96.074219 C 154.90625 97.457031 154.761719 98.824219 154.507812 100.183594 C 154.453125 100.496094 154.394531 100.808594 154.347656 101.121094 L 168.730469 112.089844 C 169.09375 112.355469 169.433594 112.648438 169.742188 112.976562 C 170.050781 113.304688 170.328125 113.65625 170.570312 114.035156 C 170.816406 114.414062 171.019531 114.8125 171.191406 115.230469 C 171.359375 115.648438 171.488281 116.078125 171.574219 116.519531 C 171.664062 116.960938 171.710938 117.40625 171.714844 117.855469 C 171.71875 118.304688 171.683594 118.753906 171.601562 119.195312 C 171.523438 119.640625 171.40625 120.070312 171.246094 120.492188 C 171.085938 120.914062 170.886719 121.316406 170.652344 121.699219 L 155.972656 147.140625 C 155.515625 147.960938 154.925781 148.667969 154.199219 149.261719 C 153.46875 149.855469 152.65625 150.292969 151.761719 150.574219 C 150.84375 150.894531 149.898438 151.023438 148.929688 150.972656 C 147.957031 150.917969 147.035156 150.679688 146.15625 150.265625 L 129.90625 143.496094 L 128.578125 144.371094 C 126.128906 146.058594 123.558594 147.539062 120.867188 148.804688 L 118.128906 165.742188 C 118.054688 166.148438 117.929688 166.535156 117.753906 166.902344 C 117.425781 167.632812 117.007812 168.304688 116.5 168.921875 C 115.992188 169.539062 115.414062 170.078125 114.761719 170.539062 C 114.109375 171 113.40625 171.367188 112.65625 171.640625 C 111.90625 171.914062 111.132812 172.082031 110.335938 172.148438 Z M 81.269531 164.140625 L 110.265625 164.140625 C 110.097656 164.140625 110.175781 163.964844 110.328125 163.734375 L 113.277344 145.316406 C 113.394531 144.578125 113.695312 143.925781 114.179688 143.355469 C 114.664062 142.789062 115.257812 142.386719 115.964844 142.152344 C 118.882812 141.007812 121.613281 139.523438 124.160156 137.699219 C 125.261719 136.980469 126.351562 136.265625 127.449219 135.609375 C 127.992188 135.28125 128.582031 135.097656 129.214844 135.050781 C 129.847656 135.003906 130.457031 135.101562 131.046875 135.34375 L 149.464844 143.015625 L 163.507812 118.082031 L 147.78125 106.164062 C 147.277344 105.785156 146.882812 105.316406 146.601562 104.753906 C 146.320312 104.1875 146.179688 103.59375 146.179688 102.960938 C 146.214844 101.582031 146.363281 100.210938 146.621094 98.855469 C 146.808594 97.929688 146.917969 97 146.949219 96.058594 C 147.058594 94.160156 146.875 92.292969 146.386719 90.453125 C 146.257812 90.066406 146.191406 89.667969 146.183594 89.257812 C 146.175781 88.847656 146.230469 88.449219 146.347656 88.054688 C 146.464844 87.664062 146.636719 87.296875 146.863281 86.957031 C 147.09375 86.617188 147.367188 86.320312 147.683594 86.066406 L 162.597656 74.132812 L 148.261719 49.003906 L 130.277344 56.835938 C 129.601562 57.117188 128.902344 57.207031 128.175781 57.105469 C 127.453125 57.003906 126.804688 56.726562 126.230469 56.269531 C 122.9375 53.507812 119.261719 51.429688 115.199219 50.03125 C 114.488281 49.792969 113.894531 49.394531 113.410156 48.824219 C 112.925781 48.257812 112.625 47.605469 112.507812 46.867188 L 109.496094 28.007812 L 80.515625 28.007812 C 80.660156 28.007812 80.597656 28.167969 80.46875 28.367188 L 78.273438 45.183594 C 78.195312 45.792969 77.988281 46.351562 77.65625 46.867188 C 77.320312 47.378906 76.890625 47.792969 76.367188 48.109375 C 75.3125 48.742188 74.191406 49.375 73.050781 50.023438 C 70.074219 51.621094 67.234375 53.4375 64.53125 55.46875 C 63.964844 55.917969 63.324219 56.191406 62.605469 56.292969 C 61.890625 56.394531 61.199219 56.308594 60.527344 56.035156 L 42.421875 48.546875 L 42.207031 48.726562 L 28.082031 74.054688 L 43.070312 86.066406 C 43.542969 86.445312 43.914062 86.910156 44.175781 87.457031 C 44.4375 88.003906 44.570312 88.582031 44.570312 89.1875 C 44.535156 90.570312 44.390625 91.9375 44.128906 93.296875 C 43.585938 96.125 43.667969 98.933594 44.367188 101.726562 C 44.496094 102.117188 44.566406 102.515625 44.574219 102.925781 C 44.578125 103.332031 44.523438 103.734375 44.410156 104.125 C 44.292969 104.519531 44.121094 104.882812 43.890625 105.222656 C 43.664062 105.5625 43.390625 105.859375 43.070312 106.117188 L 28.152344 118.046875 L 42.503906 143.144531 L 60.488281 135.3125 C 61.160156 135.042969 61.851562 134.960938 62.566406 135.0625 C 63.28125 135.164062 63.921875 135.4375 64.492188 135.882812 C 67.789062 138.636719 71.464844 140.71875 75.527344 142.121094 C 76.234375 142.355469 76.832031 142.757812 77.3125 143.324219 C 77.796875 143.894531 78.097656 144.546875 78.21875 145.28125 Z M 163.925781 118.417969 C 164.097656 118.597656 164.292969 118.746094 164.519531 118.855469 Z M 163.925781 118.417969 " fill-opacity="1" fill-rule="nonzero"/></g><path fill="#000000" d="M 95.769531 132.453125 C 94.578125 132.453125 93.390625 132.394531 92.203125 132.28125 C 91.019531 132.164062 89.84375 131.988281 88.671875 131.753906 C 87.503906 131.523438 86.351562 131.234375 85.210938 130.886719 C 84.070312 130.542969 82.949219 130.140625 81.847656 129.683594 C 80.75 129.230469 79.671875 128.71875 78.621094 128.160156 C 77.570312 127.597656 76.550781 126.984375 75.558594 126.324219 C 74.570312 125.660156 73.613281 124.953125 72.691406 124.195312 C 71.769531 123.441406 70.890625 122.640625 70.046875 121.800781 C 69.203125 120.957031 68.40625 120.074219 67.648438 119.152344 C 66.894531 118.234375 66.183594 117.277344 65.523438 116.285156 C 64.859375 115.296875 64.25 114.273438 63.6875 113.222656 C 63.125 112.171875 62.617188 111.097656 62.160156 109.996094 C 61.703125 108.894531 61.304688 107.777344 60.957031 106.636719 C 60.613281 105.496094 60.324219 104.339844 60.089844 103.171875 C 59.859375 102.003906 59.683594 100.828125 59.566406 99.640625 C 59.449219 98.453125 59.390625 97.265625 59.390625 96.074219 C 59.390625 94.882812 59.449219 93.695312 59.566406 92.507812 C 59.683594 91.324219 59.859375 90.144531 60.089844 88.976562 C 60.324219 87.808594 60.613281 86.65625 60.957031 85.515625 C 61.304688 84.375 61.703125 83.253906 62.160156 82.152344 C 62.617188 81.050781 63.125 79.976562 63.6875 78.925781 C 64.25 77.875 64.859375 76.855469 65.523438 75.863281 C 66.183594 74.871094 66.894531 73.917969 67.648438 72.996094 C 68.40625 72.074219 69.203125 71.191406 70.046875 70.351562 C 70.890625 69.507812 71.769531 68.710938 72.691406 67.953125 C 73.613281 67.199219 74.570312 66.488281 75.558594 65.828125 C 76.550781 65.164062 77.570312 64.554688 78.621094 63.992188 C 79.671875 63.429688 80.75 62.921875 81.847656 62.464844 C 82.949219 62.007812 84.070312 61.609375 85.210938 61.261719 C 86.351562 60.917969 87.503906 60.628906 88.671875 60.394531 C 89.84375 60.160156 91.019531 59.988281 92.203125 59.871094 C 93.390625 59.753906 94.578125 59.695312 95.769531 59.695312 C 96.960938 59.695312 98.152344 59.753906 99.335938 59.871094 C 100.523438 59.988281 101.699219 60.160156 102.867188 60.394531 C 104.035156 60.628906 105.191406 60.917969 106.332031 61.261719 C 107.472656 61.609375 108.589844 62.007812 109.691406 62.464844 C 110.792969 62.921875 111.867188 63.429688 112.917969 63.992188 C 113.96875 64.554688 114.992188 65.164062 115.980469 65.828125 C 116.972656 66.488281 117.929688 67.199219 118.847656 67.953125 C 119.769531 68.710938 120.652344 69.507812 121.496094 70.351562 C 122.335938 71.191406 123.136719 72.074219 123.890625 72.996094 C 124.648438 73.917969 125.355469 74.871094 126.019531 75.863281 C 126.679688 76.855469 127.292969 77.875 127.855469 78.925781 C 128.417969 79.976562 128.925781 81.050781 129.382812 82.152344 C 129.835938 83.253906 130.238281 84.375 130.582031 85.515625 C 130.929688 86.65625 131.21875 87.808594 131.449219 88.976562 C 131.683594 90.144531 131.859375 91.324219 131.976562 92.507812 C 132.09375 93.695312 132.148438 94.882812 132.148438 96.074219 C 132.148438 97.265625 132.089844 98.453125 131.972656 99.640625 C 131.851562 100.824219 131.679688 102 131.445312 103.167969 C 131.210938 104.335938 130.921875 105.492188 130.574219 106.632812 C 130.226562 107.769531 129.828125 108.890625 129.371094 109.992188 C 128.914062 111.089844 128.40625 112.164062 127.84375 113.214844 C 127.28125 114.265625 126.667969 115.285156 126.007812 116.277344 C 125.34375 117.265625 124.636719 118.222656 123.878906 119.144531 C 123.125 120.0625 122.324219 120.945312 121.484375 121.789062 C 120.640625 122.628906 119.757812 123.429688 118.839844 124.183594 C 117.917969 124.941406 116.960938 125.648438 115.972656 126.3125 C 114.980469 126.972656 113.960938 127.585938 112.910156 128.148438 C 111.863281 128.707031 110.785156 129.21875 109.6875 129.675781 C 108.585938 130.132812 107.464844 130.53125 106.328125 130.878906 C 105.1875 131.226562 104.035156 131.515625 102.863281 131.75 C 101.695312 131.980469 100.519531 132.15625 99.335938 132.277344 C 98.148438 132.394531 96.960938 132.453125 95.769531 132.453125 Z M 95.769531 67.703125 C 94.839844 67.703125 93.914062 67.75 92.988281 67.839844 C 92.066406 67.929688 91.148438 68.066406 90.234375 68.25 C 89.324219 68.429688 88.425781 68.65625 87.535156 68.925781 C 86.644531 69.195312 85.773438 69.507812 84.914062 69.863281 C 84.054688 70.21875 83.214844 70.617188 82.394531 71.054688 C 81.578125 71.492188 80.78125 71.96875 80.007812 72.484375 C 79.234375 73 78.488281 73.554688 77.773438 74.144531 C 77.054688 74.734375 76.367188 75.355469 75.707031 76.011719 C 75.050781 76.671875 74.429688 77.359375 73.839844 78.078125 C 73.25 78.792969 72.695312 79.539062 72.179688 80.3125 C 71.664062 81.085938 71.1875 81.882812 70.75 82.699219 C 70.3125 83.519531 69.914062 84.359375 69.558594 85.21875 C 69.203125 86.074219 68.890625 86.949219 68.621094 87.839844 C 68.351562 88.726562 68.125 89.628906 67.945312 90.539062 C 67.761719 91.453125 67.625 92.371094 67.535156 93.292969 C 67.445312 94.21875 67.398438 95.144531 67.398438 96.074219 C 67.398438 97.003906 67.445312 97.929688 67.535156 98.855469 C 67.625 99.78125 67.761719 100.699219 67.945312 101.609375 C 68.125 102.519531 68.351562 103.421875 68.621094 104.3125 C 68.890625 105.199219 69.203125 106.074219 69.558594 106.933594 C 69.914062 107.789062 70.3125 108.628906 70.75 109.449219 C 71.1875 110.269531 71.664062 111.066406 72.179688 111.835938 C 72.695312 112.609375 73.25 113.355469 73.839844 114.074219 C 74.429688 114.792969 75.050781 115.480469 75.707031 116.136719 C 76.367188 116.792969 77.054688 117.417969 77.773438 118.007812 C 78.488281 118.597656 79.234375 119.148438 80.007812 119.664062 C 80.78125 120.179688 81.578125 120.660156 82.394531 121.097656 C 83.214844 121.535156 84.054688 121.929688 84.914062 122.285156 C 85.773438 122.644531 86.644531 122.957031 87.535156 123.226562 C 88.425781 123.496094 89.324219 123.71875 90.234375 123.902344 C 91.148438 124.082031 92.066406 124.21875 92.988281 124.308594 C 93.914062 124.402344 94.839844 124.445312 95.769531 124.445312 C 96.699219 124.445312 97.625 124.402344 98.550781 124.308594 C 99.476562 124.21875 100.394531 124.082031 101.304688 123.902344 C 102.21875 123.71875 103.117188 123.496094 104.007812 123.226562 C 104.894531 122.957031 105.769531 122.644531 106.628906 122.285156 C 107.488281 121.929688 108.324219 121.535156 109.144531 121.097656 C 109.964844 120.660156 110.761719 120.179688 111.53125 119.664062 C 112.304688 119.148438 113.050781 118.597656 113.769531 118.007812 C 114.488281 117.417969 115.175781 116.792969 115.832031 116.136719 C 116.488281 115.480469 117.113281 114.792969 117.703125 114.074219 C 118.292969 113.355469 118.84375 112.609375 119.359375 111.835938 C 119.878906 111.066406 120.355469 110.269531 120.792969 109.449219 C 121.230469 108.628906 121.628906 107.789062 121.984375 106.933594 C 122.339844 106.074219 122.652344 105.199219 122.921875 104.3125 C 123.191406 103.421875 123.414062 102.519531 123.597656 101.609375 C 123.777344 100.699219 123.914062 99.78125 124.003906 98.855469 C 124.097656 97.929688 124.140625 97.003906 124.140625 96.074219 C 124.140625 95.144531 124.09375 94.21875 124.003906 93.296875 C 123.910156 92.371094 123.773438 91.453125 123.59375 90.542969 C 123.410156 89.632812 123.183594 88.730469 122.914062 87.84375 C 122.644531 86.953125 122.332031 86.082031 121.972656 85.222656 C 121.617188 84.363281 121.222656 83.527344 120.78125 82.707031 C 120.34375 81.886719 119.867188 81.09375 119.351562 80.320312 C 118.835938 79.546875 118.28125 78.804688 117.691406 78.085938 C 117.101562 77.367188 116.480469 76.679688 115.824219 76.023438 C 115.167969 75.367188 114.480469 74.742188 113.761719 74.152344 C 113.042969 73.5625 112.296875 73.011719 111.527344 72.496094 C 110.753906 71.976562 109.957031 71.5 109.136719 71.0625 C 108.320312 70.625 107.480469 70.226562 106.625 69.871094 C 105.765625 69.515625 104.890625 69.203125 104.003906 68.933594 C 103.113281 68.660156 102.214844 68.4375 101.304688 68.253906 C 100.394531 68.070312 99.476562 67.933594 98.550781 67.84375 C 97.625 67.75 96.699219 67.703125 95.769531 67.703125 Z M 95.769531 67.703125 " fill-opacity="1" fill-rule="nonzero"/></svg>