<svg xmlns="http://www.w3.org/2000/svg" xmlns:xlink="http://www.w3.org/1999/xlink" width="256" zoomAndPan="magnify" viewBox="0 0 192 191.999996" height="256" preserveAspectRatio="xMidYMid meet" version="1.0"><defs><clipPath id="1b0fa3e17b"><path d="M 19.199219 19.199219 L 172.949219 19.199219 L 172.949219 172.949219 L 19.199219 172.949219 Z M 19.199219 19.199219 " clip-rule="nonzero"/></clipPath></defs><g clip-path="url(#1b0fa3e17b)"><path fill="#000000" d="M 150.429688 41.71875 C 143.375 34.664062 135.144531 29.113281 125.992188 25.242188 C 116.515625 21.226562 106.457031 19.199219 96.074219 19.199219 C 85.691406 19.199219 75.636719 21.226562 66.15625 25.242188 C 57.003906 29.113281 48.773438 34.664062 41.71875 41.71875 C 34.664062 48.773438 29.113281 57.003906 25.242188 66.15625 C 21.226562 75.636719 19.199219 85.691406 19.199219 96.074219 C 19.199219 106.457031 21.226562 116.515625 25.242188 125.992188 C 29.113281 135.144531 34.664062 143.375 41.71875 150.429688 C 48.773438 157.484375 57.003906 163.039062 66.15625 166.910156 C 75.636719 170.925781 85.691406 172.949219 96.074219 172.949219 C 106.457031 172.949219 116.515625 170.925781 125.992188 166.910156 C 135.144531 163.039062 143.375 157.484375 150.429688 150.429688 C 157.484375 143.375 163.039062 135.144531 166.910156 125.992188 C 170.925781 116.515625 172.949219 106.457031 172.949219 96.074219 C 172.949219 85.691406 170.925781 75.636719 166.910156 66.15625 C 163.039062 57.003906 157.484375 48.773438 150.429688 41.71875 Z M 96.058594 164.738281 C 58.199219 164.71875 27.410156 133.933594 27.410156 96.074219 C 27.410156 58.214844 58.199219 27.429688 96.058594 27.410156 Z M 96.058594 164.738281 " fill-opacity="1" fill-rule="nonzero"/></g></svg>