<svg xmlns="http://www.w3.org/2000/svg" xmlns:xlink="http://www.w3.org/1999/xlink" width="256" zoomAndPan="magnify" viewBox="0 0 192 191.999996" height="256" preserveAspectRatio="xMidYMid meet" version="1.0"><defs><clipPath id="a3f7b7d00b"><path d="M 20 49 L 172.949219 49 L 172.949219 142.691406 L 20 142.691406 Z M 20 49 " clip-rule="nonzero"/></clipPath></defs><g clip-path="url(#a3f7b7d00b)"><path fill="#000000" d="M 171.386719 92.15625 C 155.941406 65.542969 127.179688 49.011719 96.320312 49.011719 C 65.460938 49.011719 36.699219 65.542969 21.253906 92.15625 C 19.9375 94.421875 19.9375 97.214844 21.253906 99.480469 C 36.699219 126.09375 65.460938 142.625 96.320312 142.625 C 127.179688 142.625 155.941406 126.09375 171.386719 99.480469 C 172.703125 97.214844 172.703125 94.421875 171.386719 92.15625 Z M 96.320312 127.976562 C 72.148438 127.976562 49.527344 115.757812 36.277344 95.816406 C 49.527344 75.875 72.148438 63.660156 96.320312 63.660156 C 120.492188 63.660156 143.113281 75.875 156.363281 95.816406 C 143.113281 115.757812 120.492188 127.976562 96.320312 127.976562 Z M 96.320312 127.976562 " fill-opacity="1" fill-rule="nonzero"/></g><path fill="#000000" d="M 96.320312 66.78125 C 80.234375 66.78125 67.144531 79.808594 67.144531 95.816406 C 67.144531 111.824219 80.234375 124.851562 96.320312 124.851562 C 112.40625 124.851562 125.496094 111.824219 125.496094 95.816406 C 125.496094 79.808594 112.40625 66.78125 96.320312 66.78125 Z M 96.320312 110.203125 C 88.347656 110.203125 81.863281 103.753906 81.863281 95.816406 C 81.863281 87.882812 88.347656 81.429688 96.320312 81.429688 C 104.292969 81.429688 110.777344 87.882812 110.777344 95.816406 C 110.777344 103.753906 104.292969 110.203125 96.320312 110.203125 Z M 96.320312 110.203125 " fill-opacity="1" fill-rule="nonzero"/></svg>