<svg xmlns="http://www.w3.org/2000/svg" xmlns:xlink="http://www.w3.org/1999/xlink" width="256" zoomAndPan="magnify" viewBox="0 0 192 191.999996" height="256" preserveAspectRatio="xMidYMid meet" version="1.0"><defs><clipPath id="0922b13bbf"><path d="M 19.199219 35 L 108 35 L 108 157 L 19.199219 157 Z M 19.199219 35 " clip-rule="nonzero"/></clipPath><clipPath id="d24f5bdd31"><path d="M 137 30.230469 L 172.949219 30.230469 L 172.949219 161.480469 L 137 161.480469 Z M 137 30.230469 " clip-rule="nonzero"/></clipPath></defs><g clip-path="url(#0922b13bbf)"><path fill="#000000" d="M 107.046875 95.972656 C 107.046875 82.769531 97.605469 71.722656 85.101562 69.179688 L 85.101562 41.285156 C 85.101562 39.074219 83.765625 37.078125 81.71875 36.230469 C 79.660156 35.378906 77.308594 35.847656 75.738281 37.417969 L 44.429688 68.628906 L 24.757812 68.628906 C 21.730469 68.628906 19.273438 71.078125 19.273438 74.097656 L 19.273438 117.847656 C 19.273438 120.863281 21.730469 123.316406 24.757812 123.316406 L 44.429688 123.316406 L 75.738281 154.523438 C 76.785156 155.570312 78.191406 156.128906 79.617188 156.128906 C 80.324219 156.128906 81.039062 155.992188 81.71875 155.710938 C 83.765625 154.863281 85.101562 152.867188 85.101562 150.660156 L 85.101562 122.761719 C 97.605469 120.21875 107.046875 109.171875 107.046875 95.972656 Z M 74.132812 137.453125 L 50.582031 113.972656 C 49.554688 112.953125 48.15625 112.378906 46.703125 112.378906 L 30.246094 112.378906 L 30.246094 79.566406 L 46.703125 79.566406 C 48.15625 79.566406 49.554688 78.992188 50.582031 77.960938 L 74.132812 54.484375 Z M 85.101562 111.367188 L 85.101562 80.570312 C 91.472656 82.835938 96.074219 88.851562 96.074219 95.972656 C 96.074219 103.089844 91.472656 109.101562 85.101562 111.367188 Z M 85.101562 111.367188 " fill-opacity="1" fill-rule="nonzero"/></g><g clip-path="url(#d24f5bdd31)"><path fill="#000000" d="M 145.5625 30.230469 L 137.804688 37.964844 C 153.34375 53.457031 161.90625 74.058594 161.90625 95.972656 C 161.90625 117.882812 153.34375 138.480469 137.800781 153.972656 L 145.558594 161.707031 C 163.171875 144.152344 172.878906 120.804688 172.878906 95.972656 C 172.878906 71.136719 163.171875 47.785156 145.5625 30.230469 Z M 145.5625 30.230469 " fill-opacity="1" fill-rule="nonzero"/></g><path fill="#000000" d="M 130.042969 45.695312 L 122.285156 53.429688 C 133.6875 64.792969 139.960938 79.902344 139.960938 95.972656 C 139.960938 112.039062 133.6875 127.144531 122.285156 138.507812 L 130.042969 146.238281 C 143.515625 132.808594 150.933594 114.957031 150.933594 95.972656 C 150.933594 76.984375 143.515625 59.128906 130.042969 45.695312 Z M 130.042969 45.695312 " fill-opacity="1" fill-rule="nonzero"/><path fill="#000000" d="M 114.53125 61.167969 L 106.773438 68.902344 C 114.023438 76.128906 118.019531 85.746094 118.019531 95.972656 C 118.019531 106.199219 114.023438 115.804688 106.773438 123.042969 L 114.53125 130.773438 C 123.855469 121.476562 128.992188 109.117188 128.992188 95.972656 C 128.992188 82.824219 123.855469 70.460938 114.53125 61.167969 Z M 114.53125 61.167969 " fill-opacity="1" fill-rule="nonzero"/></svg>