<svg xmlns="http://www.w3.org/2000/svg" xmlns:xlink="http://www.w3.org/1999/xlink" width="256" zoomAndPan="magnify" viewBox="0 0 192 191.999996" height="256" preserveAspectRatio="xMidYMid meet" version="1.0"><defs><clipPath id="fea0b9e7a5"><path d="M 19.199219 86.976562 L 172.949219 86.976562 L 172.949219 104.976562 L 19.199219 104.976562 Z M 19.199219 86.976562 " clip-rule="nonzero"/></clipPath><clipPath id="4fde7db12f"><path d="M 19.199219 96 C 19.199219 100.984375 23.238281 105.023438 28.222656 105.023438 L 163.777344 105.023438 C 166.167969 105.023438 168.464844 104.074219 170.15625 102.382812 C 171.847656 100.6875 172.800781 98.394531 172.800781 96 C 172.800781 93.605469 171.847656 91.3125 170.15625 89.617188 C 168.464844 87.925781 166.167969 86.976562 163.777344 86.976562 L 28.222656 86.976562 C 23.238281 86.976562 19.199219 91.015625 19.199219 96 Z M 19.199219 96 " clip-rule="nonzero"/></clipPath></defs><g clip-path="url(#fea0b9e7a5)"><g clip-path="url(#4fde7db12f)"><path fill="#939598" d="M 19.28125 86.976562 L 172.867188 86.976562 L 172.867188 104.976562 L 19.28125 104.976562 Z M 19.28125 86.976562 " fill-opacity="1" fill-rule="nonzero"/><path fill="#020202" d="M 19.28125 86.976562 L 172.867188 86.976562 L 172.867188 104.976562 L 19.28125 104.976562 Z M 19.28125 86.976562 " fill-opacity="1" fill-rule="nonzero"/></g></g></svg>